<svg width="21" height="21" viewBox="0 0 21 21" fill="none" xmlns="http://www.w3.org/2000/svg">
<g clip-path="url(#clip0_1_9653)">
<path d="M10.5004 20.9996C8.42372 20.9997 6.39362 20.384 4.66686 19.2303C2.9401 18.0767 1.59422 16.4369 0.799426 14.5183C0.00462946 12.5997 -0.203387 10.4885 0.201682 8.4517C0.606751 6.41489 1.60671 4.54395 3.07511 3.07545C5.04429 1.10627 7.71507 0 10.4999 0C13.2847 0 15.9555 1.10627 17.9247 3.07545C19.8939 5.04463 21.0002 7.71541 21.0002 10.5003C21.0002 13.2851 19.8939 15.9559 17.9247 17.9251C16.952 18.903 15.7949 19.6782 14.5205 20.206C13.2461 20.7337 11.8797 21.0035 10.5004 20.9996ZM10.3089 4.37465C9.44782 4.37465 8.67892 4.37465 7.95815 4.37967C7.32076 4.36231 6.691 4.52169 6.13861 4.84017C5.58623 5.15865 5.13276 5.6238 4.82843 6.18411C4.52768 6.70695 4.37356 7.30125 4.38233 7.90435C4.38233 8.4243 4.38233 8.94459 4.38233 9.4652C4.38233 10.8095 4.37331 12.1979 4.39135 13.5633C4.37569 14.2539 4.56974 14.933 4.94789 15.5111C5.32605 16.0891 5.87055 16.539 6.50958 16.8013C6.95282 17.0009 7.43507 17.0988 7.92105 17.088C8.48444 17.088 9.04817 17.088 9.61222 17.088H9.62325C10.1853 17.088 10.7474 17.088 11.3094 17.088C12.1114 17.088 12.8432 17.088 13.5589 17.075C14.2521 17.0948 14.9347 16.9018 15.5147 16.5218C16.0947 16.1418 16.5443 15.5931 16.8029 14.9497C16.8948 14.7313 16.962 14.5033 17.0034 14.27C17.0245 14.1698 17.0475 14.0645 17.0736 13.9633C17.0814 13.9319 17.0874 13.9001 17.0917 13.8681C17.0917 13.855 17.0917 13.842 17.0977 13.829V7.62968C17.0866 7.57053 17.0776 7.51038 17.0686 7.45024C17.0512 7.31789 17.0261 7.18667 16.9934 7.05727C16.8385 6.40018 16.4948 5.80275 16.0046 5.33857C15.5144 4.87438 14.8992 4.56371 14.2346 4.44483C13.9993 4.39835 13.7597 4.37684 13.5199 4.38067H13.5128C12.4643 4.37766 11.3816 4.37465 10.3089 4.37465ZM10.5866 15.9632H7.94812C7.4399 15.9769 6.94086 15.8259 6.52538 15.5329C6.1099 15.2399 5.8002 14.8205 5.64244 14.3372C5.55703 14.0695 5.51407 13.7901 5.51512 13.5092C5.5051 11.7639 5.50811 9.9905 5.51011 8.27527V7.95949C5.48994 7.44845 5.63783 6.94489 5.93114 6.52592C6.22446 6.10695 6.64702 5.79568 7.13412 5.63977C7.40542 5.55382 7.68859 5.51119 7.97318 5.51346C8.88643 5.50845 9.81873 5.50544 10.8232 5.50544C11.7187 5.50544 12.6136 5.50544 13.5078 5.50544C14.0188 5.48877 14.5215 5.63727 14.9413 5.92892C15.3612 6.22057 15.6758 6.63981 15.8386 7.12443C15.9307 7.3995 15.9741 7.68854 15.9669 7.97854C15.9669 8.55262 15.9669 9.1267 15.9669 9.70078V13.4991C15.976 13.8225 15.9195 14.1444 15.8007 14.4453C15.682 14.7463 15.5035 15.02 15.276 15.25C15.0485 15.48 14.7768 15.6616 14.4772 15.7836C14.1776 15.9057 13.8563 15.9658 13.5329 15.9602L10.5866 15.9632ZM10.742 7.45725H10.732C10.2995 7.4583 9.87162 7.54525 9.47306 7.71303C9.0745 7.88082 8.71324 8.12611 8.41026 8.43466C8.10722 8.73697 7.86725 9.09646 7.70428 9.49227C7.54131 9.88807 7.45859 10.3123 7.46092 10.7403C7.46672 11.6063 7.81371 12.4351 8.42664 13.0469C9.03956 13.6587 9.86899 14.0042 10.735 14.0084C11.5938 13.9934 12.4124 13.6417 13.0144 13.029C13.6164 12.4164 13.9538 11.5918 13.9538 10.7328C13.9538 9.87388 13.6164 9.0493 13.0144 8.43664C12.4124 7.82399 11.5938 7.47228 10.735 7.45725H10.742ZM14.1434 6.50591C13.9251 6.50258 13.7144 6.58611 13.5578 6.73811C13.4011 6.8901 13.3112 7.09812 13.3078 7.31641C13.3045 7.53469 13.388 7.74535 13.54 7.90204C13.692 8.05874 13.9 8.14864 14.1183 8.15196H14.1474C14.3641 8.15201 14.5722 8.06711 14.727 7.91549C14.8818 7.76387 14.971 7.55761 14.9754 7.34097C14.9781 7.23595 14.9599 7.13145 14.9219 7.03353C14.8839 6.93561 14.8268 6.84622 14.7539 6.77056C14.6783 6.68988 14.5875 6.62502 14.4866 6.57976C14.3858 6.5345 14.277 6.50974 14.1664 6.50691L14.1434 6.50591ZM10.735 12.8786C10.238 12.879 9.75621 12.707 9.37177 12.392C8.98733 12.077 8.724 11.6385 8.62665 11.1511C8.52929 10.6637 8.60394 10.1577 8.83788 9.71916C9.07181 9.28065 9.45055 8.93681 9.90957 8.74623C10.3686 8.55566 10.8795 8.53013 11.3552 8.67401C11.8309 8.81788 12.2421 9.12226 12.5186 9.53527C12.795 9.94828 12.9197 10.4444 12.8715 10.939C12.8232 11.4337 12.6049 11.8963 12.2537 12.2481C11.8514 12.6511 11.3055 12.8779 10.736 12.8786H10.735Z" fill="#111111"/>
</g>
<defs>
<clipPath id="clip0_1_9653">
<rect width="20.948" height="20.948" fill="white" transform="scale(1.00247)"/>
</clipPath>
</defs>
</svg>
