<svg width="21" height="21" viewBox="0 0 21 21" fill="none" xmlns="http://www.w3.org/2000/svg">
<g clip-path="url(#clip0_1_9651)">
<path d="M10.5002 20.9993C8.07818 20.9969 5.73148 20.1574 3.85744 18.6232C1.9834 17.0889 0.6972 14.9541 0.216655 12.5803C-0.26389 10.2065 0.0907501 7.73951 1.22052 5.59717C2.35029 3.45484 4.18576 1.7688 6.41609 0.82457C8.97303 -0.21225 11.8353 -0.201261 14.3842 0.855161C16.9331 1.91158 18.9639 3.92858 20.0377 6.47021C21.1115 9.01183 21.142 11.8739 20.1227 14.4379C19.1033 17.0018 17.116 19.0617 14.5902 20.1723C13.2965 20.7205 11.9053 21.0018 10.5002 20.9993ZM7.07773 8.49848V10.9104H8.42805V17.7743H11.2671V10.9104H13.1407L13.3883 8.5045H11.266V7.08099C11.2582 6.98295 11.2728 6.8844 11.3087 6.79285C11.3447 6.7013 11.4011 6.61916 11.4736 6.55269C11.5869 6.46626 11.7261 6.42068 11.8685 6.42337H13.3943V4.0816L11.2891 4.07258C10.9054 4.04268 10.5198 4.09631 10.1589 4.22978C9.79791 4.36325 9.47018 4.57338 9.19824 4.8457C8.92631 5.11801 8.71664 5.44604 8.58368 5.80718C8.45072 6.16832 8.39762 6.554 8.42805 6.93764V8.49848H7.07773Z" fill="#111111"/>
</g>
<defs>
<clipPath id="clip0_1_9651">
<rect width="20.948" height="20.948" fill="white" transform="scale(1.00247)"/>
</clipPath>
</defs>
</svg>
