<svg width="16" height="16" viewBox="0 0 16 16" fill="none" xmlns="http://www.w3.org/2000/svg">
<path d="M15.0004 5.2504C15.0014 4.18914 14.6054 3.16589 13.8902 2.38185C13.175 1.59781 12.1923 1.10973 11.1354 1.01358C10.0785 0.917432 9.0239 1.22018 8.17894 1.86228C7.33398 2.50438 6.75981 3.43937 6.56936 4.4834C6.18086 5.6664 5.83586 6.3309 5.63936 6.6544L3.64686 8.6469C3.57696 8.71682 3.52935 8.8059 3.51007 8.90288C3.49078 8.99986 3.50069 9.10037 3.53852 9.19172C3.57636 9.28307 3.64043 9.36116 3.72263 9.4161C3.80484 9.47104 3.90149 9.50038 4.00036 9.5004H4.05436L2.54236 11.0124C2.19653 11.0533 1.87077 11.1965 1.60677 11.4236C1.34277 11.6507 1.15254 11.9514 1.0604 12.2873C0.96827 12.6231 0.978429 12.9788 1.08958 13.3088C1.20074 13.6389 1.40783 13.9282 1.68436 14.1399C1.75236 14.1919 1.81253 14.2519 1.86486 14.3199C2.07748 14.5955 2.36746 14.8014 2.69773 14.9114C3.028 15.0213 3.38355 15.0302 3.71893 14.9371C4.0543 14.8439 4.35428 14.6528 4.58049 14.3882C4.80671 14.1237 4.94889 13.7977 4.98886 13.4519L6.50036 11.9394V12.0004C6.50038 12.0993 6.52972 12.1959 6.58466 12.2781C6.6396 12.3603 6.71768 12.4244 6.80903 12.4622C6.90038 12.5001 7.0009 12.51 7.09788 12.4907C7.19485 12.4714 7.28393 12.4238 7.35386 12.3539L9.34736 10.3609C9.67386 10.1634 10.3434 9.8174 11.5334 9.4284C12.5078 9.24574 13.3878 8.72812 14.0209 7.96515C14.6541 7.20217 15.0005 6.24185 15.0004 5.2504ZM6.50036 10.5254L4.15886 12.8674C4.10852 12.9177 4.0686 12.9774 4.0414 13.0431C4.0142 13.1088 4.00025 13.1793 4.00036 13.2504C4.00038 13.407 3.9514 13.5596 3.86029 13.687C3.76917 13.8143 3.64049 13.9099 3.49228 13.9604C3.34407 14.0109 3.18378 14.0138 3.03387 13.9686C2.88396 13.9234 2.75195 13.8324 2.65636 13.7084C2.55124 13.5726 2.42906 13.451 2.29286 13.3464C2.16824 13.2512 2.07659 13.1193 2.03081 12.9693C1.98503 12.8194 1.98742 12.6588 2.03764 12.5102C2.08786 12.3617 2.18339 12.2326 2.31078 12.1411C2.43818 12.0497 2.59104 12.0005 2.74786 12.0004C2.88936 12.0004 3.02436 11.9444 3.12436 11.8449L5.46886 9.5004H6.50036V10.5254ZM10.7504 2.0004C11.5634 1.99924 12.3473 2.30284 12.9474 2.8513C13.5476 3.39975 13.9204 4.15323 13.9923 4.96305C14.0641 5.77288 13.8299 6.58024 13.3357 7.22582C12.8416 7.87141 12.1234 8.30834 11.3229 8.4504C11.2999 8.4544 11.2775 8.4599 11.2559 8.4669C9.92086 8.9009 9.16036 9.2984 8.77086 9.5414C8.73861 9.56144 8.70875 9.58509 8.68186 9.6119L7.50036 10.7934V9.0004C7.50036 8.86779 7.44768 8.74061 7.35391 8.64684C7.26015 8.55307 7.13297 8.5004 7.00036 8.5004H5.20736L6.38736 7.3204C6.41393 7.29379 6.43741 7.26427 6.45736 7.2324C6.70036 6.8449 7.09736 6.0884 7.53086 4.7604C7.53837 4.73751 7.54422 4.71412 7.54836 4.6904C7.68017 3.93689 8.07353 3.25402 8.65923 2.76198C9.24493 2.26993 9.98541 2.00025 10.7504 2.0004Z" fill="#F5F5F5"/>
</svg>
