<svg width="236" height="24" viewBox="0 0 236 24" fill="none" xmlns="http://www.w3.org/2000/svg">
<g clip-path="url(#clip0_1_9657)">
<path d="M37.1751 3.16545C38.4665 3.13252 39.7479 3.39847 40.9181 3.94227C42.0883 4.48607 43.1151 5.29283 43.9175 6.29879L46.8026 4.59953C45.253 2.6334 43.1247 1.1966 40.7143 0.489353C38.304 -0.217889 35.7315 -0.160329 33.3556 0.654013C30.9797 1.46835 28.9187 2.99889 27.4598 5.03234C26.0009 7.06578 25.2168 9.50084 25.2168 11.9981C25.2168 14.4953 26.0009 16.9303 27.4598 18.9638C28.9187 20.9972 30.9797 22.5277 33.3556 23.3421C35.7315 24.1564 38.304 24.214 40.7143 23.5067C43.1247 22.7995 45.253 21.3627 46.8026 19.3966L43.9175 17.6973C43.1152 18.7034 42.0884 19.5102 40.9182 20.054C39.748 20.5978 38.4666 20.8637 37.1751 20.8306C36.009 20.8487 34.8514 20.6305 33.7729 20.1894C32.6945 19.7482 31.7178 19.0933 30.9025 18.2647C30.0748 17.4444 29.4224 16.4666 28.9843 15.3898C28.5462 14.313 28.3314 13.1594 28.3528 11.9981C28.3436 10.8414 28.5649 9.69434 29.0041 8.6231C29.4433 7.55186 30.0916 6.57763 30.9117 5.75662C31.7317 4.93561 32.7073 4.2841 33.782 3.83962C34.8568 3.39514 36.0095 3.16652 37.1737 3.16694L37.1751 3.16545Z" fill="#111111"/>
<path d="M49.623 3.37019H57.4702V23.7894H60.8325V3.37019H68.6797V0.407227H49.623V3.37019Z" fill="#111111"/>
<path d="M76.8974 0.407227H73.5352V23.7969H76.8974V0.407227Z" fill="#111111"/>
<path d="M93.6256 19.8383L85.5414 0.407227H81.5156L91.3772 23.7968H95.8383L105.736 0.407227H101.677L93.6256 19.8383Z" fill="#111111"/>
<path d="M123.709 12.2383L116.563 0.407227H109.406V23.7968H114.637V7.39833L122.803 20.8265H124.649L132.571 7.39833V23.7954H137.801V0.407227H130.886L123.709 12.2383Z" fill="#111111"/>
<path d="M147.145 14.1435H159.475V9.68873H147.145V5.23389H160.596V0.407227H141.914V23.7968H160.596V18.9702H147.145V14.1435Z" fill="#111111"/>
<path d="M173.49 0.407227L163.93 23.7968H170.301L172.112 18.9702H181.94L183.751 23.7968H190.131L180.501 0.407227H173.49ZM173.523 14.8858L177.012 6.29314L180.501 14.8858H173.523Z" fill="#111111"/>
<path d="M199.454 0.407227H193.85V23.7968H211.411V18.9702H199.454V0.407227Z" fill="#111111"/>
<path d="M235.128 13.2974C234.467 12.4104 233.604 11.6908 232.611 11.1967C231.389 10.5999 230.108 10.1307 228.788 9.79667L226.473 9.13003C225.196 8.84459 223.948 8.44337 222.745 7.93149C222.5 7.82822 222.291 7.65699 222.142 7.43832C221.993 7.21965 221.911 6.96286 221.906 6.69889C221.906 5.23222 223.18 4.49891 225.025 4.46632C227.887 4.56496 230.688 5.3178 233.21 6.66634L235.459 2.56706C232.475 0.817513 229.06 -0.0710375 225.596 0.00114283C220.33 0.00114283 216.137 2.33299 216.137 7.33447C216.08 8.43388 216.384 9.52193 217.002 10.4354C217.62 11.3489 218.52 12.0386 219.566 12.4011C221.302 13.169 223.111 13.7607 224.967 14.1671L225.536 14.3019C226.901 14.5675 228.23 14.9927 229.495 15.5685C229.79 15.7378 230.029 15.9884 230.184 16.29C230.339 16.5915 230.402 16.9311 230.367 17.2678C230.367 18.8011 228.757 19.4678 226.938 19.4678C223.616 19.469 220.357 18.5701 217.512 16.8678L215.098 20.8337C218.438 22.9869 222.353 24.0901 226.334 23.9996C232.238 23.9996 235.994 21.3671 235.994 16.6011C236.01 15.4425 235.711 14.3011 235.128 13.2974Z" fill="#111111"/>
<path d="M18.793 18.2338L21.201 23.7968H24.8897L21.2352 16.1523C20.4634 16.8937 19.6479 17.5887 18.793 18.2338Z" fill="#111111"/>
<path d="M20.3717 15.5272L20.4373 15.4635C21.4047 14.5748 22.5143 13.8524 23.7205 13.3257C22.1886 12.324 20.4611 11.655 18.651 11.3628C18.4199 11.3257 18.1873 11.2961 17.9532 11.2709C15.6269 11.1408 13.3218 11.7715 11.3903 13.0664C9.4589 14.3613 8.00753 16.2492 7.25823 18.4413C6.99581 18.6043 6.74533 18.7835 6.49931 18.9658L5.27967 20.1435L6.25479 17.9065L9.0057 11.5909L12.435 3.71538L15.6705 10.7613C15.748 10.7361 15.8196 10.7065 15.9016 10.6828C17.0902 10.4123 18.334 10.5158 19.4606 10.9791L14.6253 0.407227H10.197L1.26438 20.8754L0 23.7968H3.75436L3.90346 23.425H3.92135L3.9303 23.3569H3.94074C6.53238 19.7489 10.0846 16.9299 14.1989 15.2161C14.6089 15.0457 15.0249 14.8843 15.4439 14.7376C16.7976 14.2608 18.1919 13.9063 19.6098 13.6783C20.0412 13.6092 20.475 13.5514 20.9114 13.505C20.4919 13.5949 20.0754 13.6936 19.6619 13.8013C15.1707 15.0012 11.0967 17.4018 7.88296 20.7421C10.6483 21.6023 13.6358 20.8843 16.8454 18.588C18.0706 17.695 19.2178 16.7008 20.2747 15.6161L20.3717 15.5272Z" fill="#111111"/>
</g>
<defs>
<clipPath id="clip0_1_9657">
<rect width="236" height="24" fill="white"/>
</clipPath>
</defs>
</svg>
