<svg width="27" height="34" viewBox="0 0 27 34" fill="none" xmlns="http://www.w3.org/2000/svg">
<path d="M26.9419 28.0376L25.4237 8.90507C25.3295 7.67235 24.2866 6.70713 23.0505 6.70713H20.0513V11.1509C20.0513 11.7012 19.6059 12.1467 19.0556 12.1467C18.5059 12.1467 18.0598 11.7012 18.0598 11.1509V6.70713H8.89886V11.1509C8.89886 11.7012 8.45274 12.1467 7.90308 12.1467C7.35277 12.1467 6.90731 11.7012 6.90731 11.1509V6.70713H3.9081C2.67206 6.70713 1.62914 7.67236 1.53491 8.90241L0.0160458 28.0402C-0.101428 29.573 0.430293 31.0985 1.47448 32.2257C2.51873 33.3528 3.99908 34.0001 5.53587 34.0001H21.4228C22.9596 34.0001 24.44 33.3528 25.4842 32.2256C26.5284 31.0985 27.0601 29.573 26.9419 28.0376ZM17.9656 18.2944L12.8155 23.4444C12.621 23.6389 12.366 23.7365 12.1112 23.7365C11.8562 23.7365 11.6014 23.6389 11.4069 23.4444L8.99316 21.0307C8.60414 20.6417 8.60414 20.0117 8.99316 19.6227C9.38217 19.2337 10.0128 19.2337 10.4012 19.6227L12.1112 21.3321L16.5576 16.8857C16.9459 16.4974 17.5766 16.4974 17.9656 16.8857C18.3546 17.2748 18.3546 17.9054 17.9656 18.2944Z" fill="#BAF700"/>
<path d="M13.4803 0C9.85638 0 6.9083 2.94874 6.9083 6.57264V6.70738H8.89985V6.57264C8.89985 4.04672 10.9544 1.99148 13.4803 1.99148C16.0063 1.99148 18.0608 4.04672 18.0608 6.57264V6.70738H20.0523V6.57264C20.0523 2.94874 17.1042 0 13.4803 0Z" fill="#BAF700"/>
</svg>
