<svg width="423" height="463" viewBox="0 0 423 463" fill="none" xmlns="http://www.w3.org/2000/svg">
<path d="M414.019 0H8.98089C4.02088 0 0 3.93344 0 8.78558V454.214C0 459.067 4.02088 463 8.98089 463H414.019C418.979 463 423 459.067 423 454.214V8.78558C423 3.93344 418.979 0 414.019 0Z" fill="#BAF700"/>
<path d="M45.22 123H49.94V137H45.22V123ZM40.86 137H36.14V123H40.86V137ZM45.54 131.84H40.54V127.96H45.54V131.84ZM59.5542 137.32C58.4209 137.32 57.3676 137.14 56.3942 136.78C55.4342 136.42 54.6009 135.913 53.8942 135.26C53.1876 134.593 52.6342 133.813 52.2342 132.92C51.8476 132.027 51.6542 131.053 51.6542 130C51.6542 128.933 51.8476 127.96 52.2342 127.08C52.6342 126.187 53.1876 125.413 53.8942 124.76C54.6009 124.093 55.4342 123.58 56.3942 123.22C57.3676 122.86 58.4209 122.68 59.5542 122.68C60.7009 122.68 61.7542 122.86 62.7142 123.22C63.6742 123.58 64.5076 124.093 65.2142 124.76C65.9209 125.413 66.4676 126.187 66.8542 127.08C67.2542 127.96 67.4542 128.933 67.4542 130C67.4542 131.053 67.2542 132.027 66.8542 132.92C66.4676 133.813 65.9209 134.593 65.2142 135.26C64.5076 135.913 63.6742 136.42 62.7142 136.78C61.7542 137.14 60.7009 137.32 59.5542 137.32ZM59.5542 133.5C59.9942 133.5 60.4009 133.42 60.7742 133.26C61.1609 133.1 61.4942 132.873 61.7742 132.58C62.0676 132.273 62.2942 131.907 62.4542 131.48C62.6142 131.04 62.6942 130.547 62.6942 130C62.6942 129.453 62.6142 128.967 62.4542 128.54C62.2942 128.1 62.0676 127.733 61.7742 127.44C61.4942 127.133 61.1609 126.9 60.7742 126.74C60.4009 126.58 59.9942 126.5 59.5542 126.5C59.1142 126.5 58.7009 126.58 58.3142 126.74C57.9409 126.9 57.6076 127.133 57.3142 127.44C57.0342 127.733 56.8142 128.1 56.6542 128.54C56.4942 128.967 56.4142 129.453 56.4142 130C56.4142 130.547 56.4942 131.04 56.6542 131.48C56.8142 131.907 57.0342 132.273 57.3142 132.58C57.6076 132.873 57.9409 133.1 58.3142 133.26C58.7009 133.42 59.1142 133.5 59.5542 133.5ZM69.1673 137V123H73.0473L78.6473 132.14H76.6073L82.0473 123H85.9273L85.9673 137H81.6673L81.6273 129.48H82.3073L78.5873 135.74H76.5073L72.6273 129.48H73.4673V137H69.1673ZM92.5694 128.2H98.8094V131.6H92.5694V128.2ZM92.8894 133.44H99.8894V137H88.2494V123H99.6294V126.56H92.8894V133.44ZM107.703 137V123H114.603C116.163 123 117.536 123.287 118.723 123.86C119.909 124.42 120.836 125.22 121.503 126.26C122.169 127.3 122.503 128.54 122.503 129.98C122.503 131.433 122.169 132.687 121.503 133.74C120.836 134.78 119.909 135.587 118.723 136.16C117.536 136.72 116.163 137 114.603 137H107.703ZM112.423 133.32H114.403C115.069 133.32 115.649 133.193 116.143 132.94C116.649 132.687 117.043 132.313 117.323 131.82C117.603 131.313 117.743 130.7 117.743 129.98C117.743 129.273 117.603 128.673 117.323 128.18C117.043 127.687 116.649 127.313 116.143 127.06C115.649 126.807 115.069 126.68 114.403 126.68H112.423V133.32ZM128.546 128.2H134.786V131.6H128.546V128.2ZM128.866 133.44H135.866V137H124.226V123H135.606V126.56H128.866V133.44ZM137.683 137V123H142.403V133.34H148.723V137H137.683ZM150.027 137V123H154.747V137H150.027ZM161.419 137L155.499 123H160.579L165.399 134.82H162.379L167.339 123H171.979L166.059 137H161.419ZM176.769 128.2H183.009V131.6H176.769V128.2ZM177.089 133.44H184.089V137H172.449V123H183.829V126.56H177.089V133.44ZM185.906 137V123H192.646C193.952 123 195.079 123.213 196.026 123.64C196.986 124.067 197.726 124.68 198.246 125.48C198.766 126.267 199.026 127.2 199.026 128.28C199.026 129.36 198.766 130.293 198.246 131.08C197.726 131.853 196.986 132.447 196.026 132.86C195.079 133.273 193.952 133.48 192.646 133.48H188.526L190.626 131.54V137H185.906ZM194.286 137L190.846 131.9H195.846L199.326 137H194.286ZM190.626 132.06L188.526 129.92H192.346C192.999 129.92 193.479 129.773 193.786 129.48C194.106 129.187 194.266 128.787 194.266 128.28C194.266 127.773 194.106 127.373 193.786 127.08C193.479 126.787 192.999 126.64 192.346 126.64H188.526L190.626 124.5V132.06ZM204.213 137V130.86L205.293 133.68L198.933 123H203.913L208.213 130.3H205.313L209.653 123H214.213L207.893 133.68L208.933 130.86V137H204.213Z" fill="#111111"/>
<path d="M105.124 58.7021H42.0781V99.4917H105.124V58.7021Z" fill="#687F23"/>
<path d="M106.902 58.7031H104.094V99.4927H106.902V58.7031Z" fill="#687F23"/>
<path d="M66.8761 49.3359H64.9785V99.6208H66.8761V49.3359Z" fill="#111111"/>
<path d="M50.7472 49.3359H48.8496V99.6208H50.7472V49.3359Z" fill="#111111"/>
<path d="M102.925 59.916H68.9766V88.6714H102.925V59.916Z" fill="#BAF700"/>
<path d="M47.7322 59.916H42.957V88.6714H47.7322V59.916Z" fill="#BAF700"/>
<path d="M63.1536 74.5259V88.6701H52.4326V74.5259C52.4192 73.8134 52.5479 73.1054 52.8113 72.4432C53.0747 71.7811 53.4674 71.1782 53.9665 70.6696C54.4656 70.161 55.061 69.757 55.7181 69.4812C56.3751 69.2054 57.0806 69.0635 57.7932 69.0635C58.5057 69.0635 59.2111 69.2054 59.8681 69.4812C60.5252 69.757 61.1206 70.161 61.6198 70.6696C62.1189 71.1782 62.5115 71.7811 62.7749 72.4432C63.0383 73.1054 63.167 73.8134 63.1536 74.5259Z" fill="#BAF700"/>
<path d="M107.933 58.7021H39.2703L38.2656 57.4688H108.938L107.933 58.7021Z" fill="#BF5E35"/>
<path d="M108.938 57.4756H38.2656L39.2703 56.2422H107.933L108.938 57.4756Z" fill="#F5966E"/>
<path d="M109.272 99.4922H37.9316V102.254H109.272V99.4922Z" fill="#111111"/>
<path d="M102.929 88.2354H68.7734V91.0817H102.929V88.2354Z" fill="#111111"/>
<path d="M42.0779 58.7021H39.2695V99.4917H42.0779V58.7021Z" fill="#687F23"/>
<path d="M105.641 43.9443H41.5664V49.2973H105.641V43.9443Z" fill="#687F23"/>
<path d="M104.757 41.7461H42.4445C41.6187 41.7461 40.9492 42.4153 40.9492 43.2409C40.9492 44.0664 41.6187 44.7357 42.4445 44.7357H104.757C105.583 44.7357 106.252 44.0664 106.252 43.2409C106.252 42.4153 105.583 41.7461 104.757 41.7461Z" fill="#111111"/>
<path d="M38.6912 62.6243C38.1142 62.6243 37.5608 62.3951 37.1528 61.9871C36.7449 61.5791 36.5156 61.0257 36.5156 60.4487V57.3301H40.8667V60.4487C40.8667 61.0257 40.6375 61.5791 40.2295 61.9871C39.8215 62.3951 39.2682 62.6243 38.6912 62.6243Z" fill="#93B133"/>
<path d="M43.0427 62.6243C42.4657 62.6243 41.9124 62.3951 41.5044 61.9871C41.0964 61.5791 40.8672 61.0257 40.8672 60.4487V57.3301H45.2183V60.4487C45.2183 61.0257 44.9891 61.5791 44.5811 61.9871C44.1731 62.3951 43.6197 62.6243 43.0427 62.6243Z" fill="#FFF599"/>
<path d="M45.2188 57.3301H49.5698V60.4487C49.5698 61.0257 49.3406 61.579 48.9326 61.987C48.5246 62.395 47.9713 62.6242 47.3943 62.6242C46.8173 62.6242 46.2639 62.395 45.8559 61.987C45.448 61.579 45.2188 61.0257 45.2188 60.4487V57.3301Z" fill="#93B133"/>
<path d="M51.744 62.6243C51.167 62.6243 50.6136 62.3951 50.2056 61.9871C49.7976 61.5791 49.5684 61.0257 49.5684 60.4487V57.3301H53.9195V60.4487C53.9195 61.0257 53.6902 61.5791 53.2823 61.9871C52.8743 62.3951 52.321 62.6243 51.744 62.6243Z" fill="#FFF599"/>
<path d="M56.0936 62.6243C55.5166 62.6243 54.9632 62.3951 54.5552 61.9871C54.1472 61.5791 53.918 61.0257 53.918 60.4487V57.3301H58.2691V60.4487C58.2691 60.7344 58.2128 61.0173 58.1035 61.2813C57.9941 61.5452 57.8339 61.7851 57.6319 61.9871C57.4298 62.1891 57.19 62.3493 56.9261 62.4587C56.6621 62.568 56.3793 62.6243 56.0936 62.6243Z" fill="#93B133"/>
<path d="M60.4451 62.6243C59.8682 62.6243 59.3147 62.3951 58.9068 61.9871C58.4988 61.5791 58.2695 61.0257 58.2695 60.4487V57.3301H62.6206V60.4487C62.6206 60.7344 62.5644 61.0173 62.455 61.2813C62.3457 61.5452 62.1854 61.7851 61.9834 61.9871C61.7814 62.1891 61.5416 62.3493 61.2776 62.4587C61.0137 62.568 60.7308 62.6243 60.4451 62.6243Z" fill="#FFF599"/>
<path d="M62.6211 57.3301H66.9722V60.4487C66.9722 61.0257 66.7429 61.579 66.335 61.987C65.927 62.395 65.3736 62.6242 64.7966 62.6242C64.2196 62.6242 63.6663 62.395 63.2583 61.987C62.8503 61.579 62.6211 61.0257 62.6211 60.4487V57.3301Z" fill="#93B133"/>
<path d="M69.1483 62.6243C68.5713 62.6243 68.0179 62.3951 67.6099 61.9871C67.2019 61.5791 66.9727 61.0257 66.9727 60.4487V57.3301H71.3238V60.4487C71.3238 61.0257 71.0945 61.5791 70.6866 61.9871C70.2786 62.3951 69.7253 62.6243 69.1483 62.6243Z" fill="#FFF599"/>
<path d="M73.4998 62.6243C72.9228 62.6243 72.3694 62.3951 71.9614 61.9871C71.5535 61.5791 71.3242 61.0257 71.3242 60.4487V57.3301H75.6753V60.4487C75.6753 60.7344 75.619 61.0173 75.5097 61.2813C75.4004 61.5452 75.2401 61.7851 75.0381 61.9871C74.8361 62.1891 74.5963 62.3493 74.3323 62.4587C74.0684 62.568 73.7855 62.6243 73.4998 62.6243Z" fill="#93B133"/>
<path d="M77.8513 62.6243C77.2743 62.6243 76.7209 62.3951 76.3129 61.9871C75.9049 61.5791 75.6758 61.0257 75.6758 60.4487V57.3301H80.0268V60.4487C80.0268 61.0257 79.7976 61.5791 79.3896 61.9871C78.9816 62.3951 78.4283 62.6243 77.8513 62.6243Z" fill="#FFF599"/>
<path d="M80.0273 57.3301H84.3784V60.4487C84.3784 61.0257 84.1492 61.579 83.7412 61.987C83.3332 62.395 82.7799 62.6242 82.2029 62.6242C81.6259 62.6242 81.0725 62.395 80.6645 61.987C80.2566 61.579 80.0273 61.0257 80.0273 60.4487V57.3301Z" fill="#93B133"/>
<path d="M86.5525 62.6243C85.9755 62.6243 85.4221 62.3951 85.0141 61.9871C84.6061 61.5791 84.377 61.0257 84.377 60.4487V57.3301H88.728V60.4487C88.728 61.0257 88.4987 61.5791 88.0907 61.9871C87.6827 62.3951 87.1294 62.6243 86.5525 62.6243Z" fill="#FFF599"/>
<path d="M90.904 62.6243C90.327 62.6243 89.7736 62.3951 89.3656 61.9871C88.9576 61.5791 88.7285 61.0257 88.7285 60.4487V57.3301H93.0795V60.4487C93.0795 61.0257 92.8503 61.5791 92.4423 61.9871C92.0343 62.3951 91.481 62.6243 90.904 62.6243Z" fill="#93B133"/>
<path d="M95.2536 62.6243C94.6766 62.6243 94.1232 62.3951 93.7152 61.9871C93.3072 61.5791 93.0781 61.0257 93.0781 60.4487V57.3301H97.4291V60.4487C97.4291 60.7344 97.3728 61.0173 97.2635 61.2813C97.1542 61.5452 96.9939 61.7851 96.7919 61.9871C96.5899 62.1891 96.3501 62.3493 96.0861 62.4587C95.8222 62.568 95.5393 62.6243 95.2536 62.6243Z" fill="#FFF599"/>
<path d="M97.4297 57.3301H101.781V60.4487C101.781 61.0257 101.552 61.579 101.144 61.987C100.736 62.395 100.182 62.6242 99.6052 62.6242C99.0282 62.6242 98.4749 62.395 98.0669 61.987C97.6589 61.579 97.4297 61.0257 97.4297 60.4487V57.3301Z" fill="#93B133"/>
<path d="M103.961 62.6243C103.384 62.6243 102.83 62.3951 102.422 61.9871C102.014 61.5791 101.785 61.0257 101.785 60.4487V57.3301H106.136V60.4487C106.136 61.0257 105.907 61.5791 105.499 61.9871C105.091 62.3951 104.538 62.6243 103.961 62.6243Z" fill="#FFF599"/>
<path d="M108.308 62.6243C107.731 62.6243 107.178 62.3951 106.77 61.9871C106.362 61.5791 106.133 61.0257 106.133 60.4487V57.3301H110.484V60.4487C110.484 61.0257 110.255 61.5791 109.847 61.9871C109.439 62.3951 108.885 62.6243 108.308 62.6243Z" fill="#93B133"/>
<path d="M40.8658 57.3302H36.5195L41.5689 48.6016H45.326L40.8658 57.3302Z" fill="#687F23"/>
<path d="M45.2183 57.3302H40.8672L45.3264 48.6016H49.0836L45.2183 57.3302Z" fill="#FFFAC2"/>
<path d="M49.5699 57.3302H45.2188L49.0803 48.6016H52.8374L49.5699 57.3302Z" fill="#687F23"/>
<path d="M53.9195 57.3302H49.5684L52.836 48.6016H56.5931L53.9195 57.3302Z" fill="#FFFAC2"/>
<path d="M58.2691 57.3302H53.918L56.5907 48.6016H60.3479L58.2691 57.3302Z" fill="#687F23"/>
<path d="M62.6206 57.3302H58.2695L60.3483 48.6016H64.1054L62.6206 57.3302Z" fill="#FFFAC2"/>
<path d="M66.9722 57.3302H62.6211L64.106 48.6016H67.8631L66.9722 57.3302Z" fill="#687F23"/>
<path d="M71.3238 57.3302H66.9727L67.8636 48.6016H71.6207L71.3238 57.3302Z" fill="#FFFAC2"/>
<path d="M75.6753 57.3302H71.3242L71.6213 48.6016H75.3784L75.6753 57.3302Z" fill="#687F23"/>
<path d="M80.027 57.3302H75.6759L75.3789 48.6016H79.136L80.027 57.3302Z" fill="#FFFAC2"/>
<path d="M84.3767 57.3302H80.0257L79.1348 48.6016H82.892L84.3767 57.3302Z" fill="#687F23"/>
<path d="M88.7265 57.3302H84.3754L82.8906 48.6016H86.6477L88.7265 57.3302Z" fill="#FFFAC2"/>
<path d="M93.0782 57.3302H88.7271L86.6484 48.6016H90.4055L93.0782 57.3302Z" fill="#687F23"/>
<path d="M97.431 57.3302H93.0799L90.4062 48.6016H94.1635L97.431 57.3302Z" fill="#FFFAC2"/>
<path d="M101.779 57.3302H97.4277L94.1602 48.6016H97.9173L101.779 57.3302Z" fill="#687F23"/>
<path d="M106.132 57.3302H101.781L97.9199 48.6016H101.677L106.132 57.3302Z" fill="#FFFAC2"/>
<path d="M110.484 57.3302H106.131L101.672 48.6016H105.429L110.484 57.3302Z" fill="#687F23"/>
<path d="M374.66 190H44.4877C39.2478 190 35 193.832 35 198.56V417.684C35 422.412 39.2478 426.244 44.4877 426.244H374.66C379.9 426.244 384.148 422.412 384.148 417.684V198.56C384.148 193.832 379.9 190 374.66 190Z" fill="#EAEAEA"/>
<path d="M274.874 278.412H326.012V273.167H274.874V278.412Z" fill="white"/>
<path d="M257.296 391.455H122.371V396.412H257.296V391.455Z" fill="white"/>
<path d="M181.484 408.934V391.254H177.43V408.934H181.484Z" fill="white"/>
<path d="M360.854 426.938V189.938H356.854V426.938H360.854Z" fill="white"/>
<path d="M34.9005 211.99L186.258 211.99V208.717L34.9005 208.717V211.99Z" fill="white"/>
<path d="M191 248V190H185V248H191Z" fill="white"/>
<path d="M383.141 403.274H125.521V411.573H383.141V403.274Z" fill="white"/>
<path d="M129.646 411.828V241.296H120.005L120.005 411.828H129.646Z" fill="white"/>
<path d="M256.854 425.938V189.938H247.854L247.854 425.938H256.854Z" fill="white"/>
<path d="M256.981 238.576H35.0234V248.218H256.981V238.576Z" fill="white"/>
<path d="M256.324 339.853H34.9004V348.028H256.324V339.853Z" fill="white"/>
<path d="M127.835 306.395H34.9004V314.57H127.835V306.395Z" fill="white"/>
<path d="M256.651 272.486H123.891V282.128H256.651V272.486Z" fill="white"/>
<path d="M160.898 394.563V273.764H156.009V394.563H160.898Z" fill="white"/>
<path d="M383.539 291.275H272.279V296.37H383.539V291.275Z" fill="white"/>
<path d="M252.312 311.895H383.621V306.965H252.312V311.895Z" fill="white"/>
<path d="M271.854 189.938V409.938H276.854V189.938H271.854Z" fill="white"/>
<path d="M323.517 212.901H383.543V207.806H323.517V212.901Z" fill="white"/>
<path d="M326.365 293.069V177.989H321.27V293.069H326.365Z" fill="white"/>
<path d="M305.664 274.532V295.828H310.909V274.532H305.664Z" fill="white"/>
<path d="M127.836 376.377H35.0234V380.746H127.836V376.377Z" fill="white"/>
<path d="M314.52 427.262V404.117H310.685V427.262H314.52Z" fill="white"/>
<path d="M270.197 407.995H128.685C127.114 407.993 125.608 407.368 124.497 406.257C123.386 405.147 122.761 403.641 122.76 402.07V248.256C122.759 247.205 122.341 246.198 121.598 245.455C120.855 244.712 119.847 244.294 118.797 244.293H77.4512V242.331H118.797C120.367 242.333 121.872 242.959 122.983 244.069C124.093 245.18 124.717 246.686 124.719 248.256V402.07C124.719 403.122 125.137 404.13 125.88 404.874C126.624 405.618 127.633 406.036 128.685 406.036H270.197C271.247 406.035 272.255 405.618 272.998 404.875C273.741 404.132 274.159 403.124 274.16 402.073V280.821C274.162 279.25 274.786 277.744 275.897 276.633C277.008 275.522 278.514 274.897 280.085 274.896H318.897C319.948 274.895 320.955 274.477 321.698 273.734C322.441 272.991 322.859 271.983 322.86 270.932V207.886H324.822V270.925C324.82 272.496 324.196 274.002 323.085 275.113C321.974 276.223 320.468 276.848 318.897 276.85H280.085C279.034 276.851 278.027 277.269 277.284 278.012C276.541 278.755 276.123 279.762 276.122 280.813V402.066C276.121 403.637 275.497 405.144 274.386 406.256C273.275 407.368 271.768 407.993 270.197 407.995Z" fill="#111111"/>
<path d="M179.508 409.574C181.415 409.574 182.96 408.029 182.96 406.123C182.96 404.216 181.415 402.671 179.508 402.671C177.602 402.671 176.057 404.216 176.057 406.123C176.057 408.029 177.602 409.574 179.508 409.574Z" fill="#111111"/>
<path d="M77.4516 246.767C79.3579 246.767 80.9033 245.221 80.9033 243.315C80.9033 241.409 79.3579 239.863 77.4516 239.863C75.5453 239.863 74 241.409 74 243.315C74 245.221 75.5453 246.767 77.4516 246.767Z" fill="#111111"/>
<path d="M323.717 212.747C325.624 212.747 327.169 211.202 327.169 209.295C327.169 207.389 325.624 205.844 323.717 205.844C321.811 205.844 320.266 207.389 320.266 209.295C320.266 211.202 321.811 212.747 323.717 212.747Z" fill="#111111"/>
<path d="M324.513 164.144C324.513 164.144 341.167 163.859 342.097 182.81C342.097 182.81 343.152 188.493 333.045 200.641L326.445 208.242C326.445 208.242 324.737 211.076 321.624 207.982C318.511 204.887 308.613 191.274 308.613 191.274C307.049 188.555 306.214 185.478 306.19 182.342C306.166 179.206 306.954 176.116 308.477 173.374C313.693 163.582 324.513 164.144 324.513 164.144Z" fill="#111111"/>
<path d="M323.842 194.822C330.9 194.822 336.621 189.101 336.621 182.044C336.621 174.987 330.9 169.266 323.842 169.266C316.785 169.266 311.064 174.987 311.064 182.044C311.064 189.101 316.785 194.822 323.842 194.822Z" fill="white"/>
<path d="M327.879 185.972L329.411 189.534H331.758L329.433 184.639C328.942 185.113 328.423 185.559 327.879 185.972Z" fill="#687F23"/>
<path d="M328.885 184.238L328.927 184.197C329.542 183.628 330.248 183.165 331.016 182.828C330.041 182.186 328.942 181.758 327.79 181.571C327.643 181.547 327.495 181.528 327.346 181.512C325.866 181.429 324.399 181.833 323.17 182.662C321.941 183.491 321.017 184.7 320.54 186.104C320.374 186.208 320.214 186.323 320.058 186.44L319.281 187.194L319.902 185.762L321.652 181.717L323.835 176.673L325.893 181.186C325.943 181.17 325.988 181.151 326.041 181.135C326.797 180.962 327.588 181.028 328.305 181.325L325.228 174.555H322.411L316.726 187.663L315.922 189.534H318.311L318.406 189.296H318.417L318.423 189.252H318.429C320.079 186.941 322.339 185.136 324.957 184.039C325.218 183.929 325.483 183.826 325.749 183.732C326.611 183.427 327.498 183.2 328.4 183.054C328.675 183.01 328.951 182.972 329.228 182.943C328.961 183 328.696 183.064 328.433 183.133C325.575 183.901 322.983 185.438 320.938 187.578C322.698 188.128 324.599 187.669 326.641 186.198C327.421 185.626 328.151 184.989 328.823 184.295L328.885 184.238Z" fill="#687F23"/>
<path d="M264.852 217.112C264.105 217.112 263.415 216.991 262.78 216.748C262.155 216.496 261.609 216.146 261.142 215.698C260.685 215.241 260.325 214.709 260.064 214.102C259.803 213.495 259.672 212.828 259.672 212.1C259.672 211.372 259.803 210.705 260.064 210.098C260.325 209.491 260.689 208.964 261.156 208.516C261.623 208.059 262.169 207.709 262.794 207.466C263.429 207.214 264.119 207.088 264.866 207.088C265.622 207.088 266.317 207.219 266.952 207.48C267.596 207.732 268.142 208.11 268.59 208.614L267.68 209.496C267.307 209.104 266.887 208.815 266.42 208.628C265.953 208.432 265.454 208.334 264.922 208.334C264.371 208.334 263.858 208.427 263.382 208.614C262.915 208.801 262.509 209.062 262.164 209.398C261.819 209.734 261.548 210.135 261.352 210.602C261.165 211.059 261.072 211.559 261.072 212.1C261.072 212.641 261.165 213.145 261.352 213.612C261.548 214.069 261.819 214.466 262.164 214.802C262.509 215.138 262.915 215.399 263.382 215.586C263.858 215.773 264.371 215.866 264.922 215.866C265.454 215.866 265.953 215.773 266.42 215.586C266.887 215.39 267.307 215.091 267.68 214.69L268.59 215.572C268.142 216.076 267.596 216.459 266.952 216.72C266.317 216.981 265.617 217.112 264.852 217.112ZM270.391 217V206.612H271.735V217H270.391ZM277.479 217.084C276.733 217.084 276.07 216.921 275.491 216.594C274.913 216.267 274.455 215.819 274.119 215.25C273.783 214.671 273.615 214.018 273.615 213.29C273.615 212.553 273.783 211.899 274.119 211.33C274.455 210.761 274.913 210.317 275.491 210C276.07 209.673 276.733 209.51 277.479 209.51C278.217 209.51 278.875 209.673 279.453 210C280.041 210.317 280.499 210.761 280.825 211.33C281.161 211.89 281.329 212.543 281.329 213.29C281.329 214.027 281.161 214.681 280.825 215.25C280.499 215.819 280.041 216.267 279.453 216.594C278.875 216.921 278.217 217.084 277.479 217.084ZM277.479 215.908C277.955 215.908 278.38 215.801 278.753 215.586C279.136 215.371 279.435 215.068 279.649 214.676C279.864 214.275 279.971 213.813 279.971 213.29C279.971 212.758 279.864 212.301 279.649 211.918C279.435 211.526 279.136 211.223 278.753 211.008C278.38 210.793 277.955 210.686 277.479 210.686C277.003 210.686 276.579 210.793 276.205 211.008C275.832 211.223 275.533 211.526 275.309 211.918C275.085 212.301 274.973 212.758 274.973 213.29C274.973 213.813 275.085 214.275 275.309 214.676C275.533 215.068 275.832 215.371 276.205 215.586C276.579 215.801 277.003 215.908 277.479 215.908ZM284.929 217L281.681 209.58H283.081L285.965 216.3H285.293L288.233 209.58H289.549L286.301 217H284.929ZM290.803 217V209.58H292.147V217H290.803ZM291.475 208.152C291.214 208.152 290.995 208.068 290.817 207.9C290.649 207.732 290.565 207.527 290.565 207.284C290.565 207.032 290.649 206.822 290.817 206.654C290.995 206.486 291.214 206.402 291.475 206.402C291.737 206.402 291.951 206.486 292.119 206.654C292.297 206.813 292.385 207.013 292.385 207.256C292.385 207.508 292.301 207.723 292.133 207.9C291.965 208.068 291.746 208.152 291.475 208.152ZM296.841 217.084C296.225 217.084 295.637 217 295.077 216.832C294.527 216.664 294.093 216.459 293.775 216.216L294.335 215.152C294.653 215.367 295.045 215.549 295.511 215.698C295.978 215.847 296.454 215.922 296.939 215.922C297.565 215.922 298.013 215.833 298.283 215.656C298.563 215.479 298.703 215.231 298.703 214.914C298.703 214.681 298.619 214.499 298.451 214.368C298.283 214.237 298.059 214.139 297.779 214.074C297.509 214.009 297.205 213.953 296.869 213.906C296.533 213.85 296.197 213.785 295.861 213.71C295.525 213.626 295.217 213.514 294.937 213.374C294.657 213.225 294.433 213.024 294.265 212.772C294.097 212.511 294.013 212.165 294.013 211.736C294.013 211.288 294.139 210.896 294.391 210.56C294.643 210.224 294.998 209.967 295.455 209.79C295.922 209.603 296.473 209.51 297.107 209.51C297.593 209.51 298.083 209.571 298.577 209.692C299.081 209.804 299.492 209.967 299.809 210.182L299.235 211.246C298.899 211.022 298.549 210.868 298.185 210.784C297.821 210.7 297.457 210.658 297.093 210.658C296.505 210.658 296.067 210.756 295.777 210.952C295.488 211.139 295.343 211.381 295.343 211.68C295.343 211.932 295.427 212.128 295.595 212.268C295.773 212.399 295.997 212.501 296.267 212.576C296.547 212.651 296.855 212.716 297.191 212.772C297.527 212.819 297.863 212.884 298.199 212.968C298.535 213.043 298.839 213.15 299.109 213.29C299.389 213.43 299.613 213.626 299.781 213.878C299.959 214.13 300.047 214.466 300.047 214.886C300.047 215.334 299.917 215.721 299.655 216.048C299.394 216.375 299.025 216.631 298.549 216.818C298.073 216.995 297.504 217.084 296.841 217.084Z" fill="#111111"/>
<path d="M179.754 361.217C179.754 361.217 196.408 360.932 197.339 379.883C197.339 379.883 198.393 385.566 188.286 397.714L181.685 405.314C181.685 405.314 179.977 408.149 176.864 405.054C173.751 401.96 163.854 388.347 163.854 388.347C162.289 385.628 161.454 382.551 161.43 379.415C161.406 376.278 162.194 373.189 163.717 370.447C168.934 360.668 179.754 361.217 179.754 361.217Z" fill="#111111"/>
<path d="M179.083 391.894C186.14 391.894 191.861 386.173 191.861 379.116C191.861 372.059 186.14 366.338 179.083 366.338C172.026 366.338 166.305 372.059 166.305 379.116C166.305 386.173 172.026 391.894 179.083 391.894Z" fill="white"/>
<path d="M183.441 382.095L184.974 385.657H187.321L184.995 380.762C184.504 381.236 183.985 381.682 183.441 382.095Z" fill="#687F23"/>
<path d="M184.445 380.361L184.487 380.32C185.103 379.751 185.809 379.288 186.576 378.951C185.602 378.309 184.502 377.881 183.351 377.694C183.204 377.67 183.056 377.651 182.907 377.635C181.426 377.552 179.959 377.956 178.73 378.785C177.501 379.614 176.578 380.823 176.101 382.227C175.934 382.331 175.775 382.446 175.618 382.563L174.842 383.317L175.463 381.885L177.213 377.84L179.395 372.796L181.454 377.309C181.503 377.293 181.549 377.274 181.601 377.258C182.357 377.085 183.149 377.151 183.866 377.448L180.789 370.678H177.971L172.287 383.786L171.482 385.657H173.871L173.966 385.419H173.978L173.983 385.375H173.99C175.639 383.065 177.9 381.259 180.518 380.162C180.778 380.053 181.043 379.949 181.31 379.855C182.171 379.55 183.058 379.323 183.961 379.177C184.235 379.133 184.511 379.096 184.789 379.066C184.522 379.123 184.257 379.187 183.994 379.256C181.136 380.024 178.544 381.561 176.499 383.701C178.258 384.251 180.159 383.792 182.202 382.321C182.981 381.749 183.711 381.112 184.384 380.418L184.445 380.361Z" fill="#687F23"/>
<path d="M204.332 393.297H209.386V394.501H204.332V393.297ZM204.472 398.463H203.072V388.663H209.988V389.881H204.472V398.463ZM211.626 398.463V391.043H212.914V393.059L212.788 392.555C212.993 392.042 213.338 391.65 213.824 391.379C214.309 391.108 214.906 390.973 215.616 390.973V392.275C215.56 392.266 215.504 392.261 215.448 392.261C215.401 392.261 215.354 392.261 215.308 392.261C214.589 392.261 214.02 392.476 213.6 392.905C213.18 393.334 212.97 393.955 212.97 394.767V398.463H211.626ZM220.508 398.547C219.714 398.547 219.014 398.384 218.408 398.057C217.81 397.73 217.344 397.282 217.008 396.713C216.681 396.144 216.518 395.49 216.518 394.753C216.518 394.016 216.676 393.362 216.994 392.793C217.32 392.224 217.764 391.78 218.324 391.463C218.893 391.136 219.532 390.973 220.242 390.973C220.96 390.973 221.595 391.132 222.146 391.449C222.696 391.766 223.126 392.214 223.434 392.793C223.751 393.362 223.91 394.03 223.91 394.795C223.91 394.851 223.905 394.916 223.896 394.991C223.896 395.066 223.891 395.136 223.882 395.201H217.568V394.235H223.182L222.636 394.571C222.645 394.095 222.547 393.67 222.342 393.297C222.136 392.924 221.852 392.634 221.488 392.429C221.133 392.214 220.718 392.107 220.242 392.107C219.775 392.107 219.36 392.214 218.996 392.429C218.632 392.634 218.347 392.928 218.142 393.311C217.936 393.684 217.834 394.114 217.834 394.599V394.823C217.834 395.318 217.946 395.761 218.17 396.153C218.403 396.536 218.725 396.834 219.136 397.049C219.546 397.264 220.018 397.371 220.55 397.371C220.988 397.371 221.385 397.296 221.74 397.147C222.104 396.998 222.421 396.774 222.692 396.475L223.434 397.343C223.098 397.735 222.678 398.034 222.174 398.239C221.679 398.444 221.124 398.547 220.508 398.547ZM227.904 398.547C227.288 398.547 226.7 398.463 226.14 398.295C225.589 398.127 225.155 397.922 224.838 397.679L225.398 396.615C225.715 396.83 226.107 397.012 226.574 397.161C227.041 397.31 227.517 397.385 228.002 397.385C228.627 397.385 229.075 397.296 229.346 397.119C229.626 396.942 229.766 396.694 229.766 396.377C229.766 396.144 229.682 395.962 229.514 395.831C229.346 395.7 229.122 395.602 228.842 395.537C228.571 395.472 228.268 395.416 227.932 395.369C227.596 395.313 227.26 395.248 226.924 395.173C226.588 395.089 226.28 394.977 226 394.837C225.72 394.688 225.496 394.487 225.328 394.235C225.16 393.974 225.076 393.628 225.076 393.199C225.076 392.751 225.202 392.359 225.454 392.023C225.706 391.687 226.061 391.43 226.518 391.253C226.985 391.066 227.535 390.973 228.17 390.973C228.655 390.973 229.145 391.034 229.64 391.155C230.144 391.267 230.555 391.43 230.872 391.645L230.298 392.709C229.962 392.485 229.612 392.331 229.248 392.247C228.884 392.163 228.52 392.121 228.156 392.121C227.568 392.121 227.129 392.219 226.84 392.415C226.551 392.602 226.406 392.844 226.406 393.143C226.406 393.395 226.49 393.591 226.658 393.731C226.835 393.862 227.059 393.964 227.33 394.039C227.61 394.114 227.918 394.179 228.254 394.235C228.59 394.282 228.926 394.347 229.262 394.431C229.598 394.506 229.901 394.613 230.172 394.753C230.452 394.893 230.676 395.089 230.844 395.341C231.021 395.593 231.11 395.929 231.11 396.349C231.11 396.797 230.979 397.184 230.718 397.511C230.457 397.838 230.088 398.094 229.612 398.281C229.136 398.458 228.567 398.547 227.904 398.547ZM236.752 390.973C237.358 390.973 237.89 391.09 238.348 391.323C238.814 391.556 239.178 391.911 239.44 392.387C239.701 392.863 239.832 393.465 239.832 394.193V398.463H238.488V394.347C238.488 393.628 238.31 393.087 237.956 392.723C237.61 392.359 237.12 392.177 236.486 392.177C236.01 392.177 235.594 392.27 235.24 392.457C234.885 392.644 234.61 392.919 234.414 393.283C234.227 393.647 234.134 394.1 234.134 394.641V398.463H232.79V391.043H234.078V393.045L233.868 392.513C234.11 392.028 234.484 391.65 234.988 391.379C235.492 391.108 236.08 390.973 236.752 390.973ZM245.497 398.547C244.75 398.547 244.088 398.384 243.509 398.057C242.93 397.73 242.473 397.282 242.137 396.713C241.801 396.134 241.633 395.481 241.633 394.753C241.633 394.016 241.801 393.362 242.137 392.793C242.473 392.224 242.93 391.78 243.509 391.463C244.088 391.136 244.75 390.973 245.497 390.973C246.234 390.973 246.892 391.136 247.471 391.463C248.059 391.78 248.516 392.224 248.843 392.793C249.179 393.353 249.347 394.006 249.347 394.753C249.347 395.49 249.179 396.144 248.843 396.713C248.516 397.282 248.059 397.73 247.471 398.057C246.892 398.384 246.234 398.547 245.497 398.547ZM245.497 397.371C245.973 397.371 246.398 397.264 246.771 397.049C247.154 396.834 247.452 396.531 247.667 396.139C247.882 395.738 247.989 395.276 247.989 394.753C247.989 394.221 247.882 393.764 247.667 393.381C247.452 392.989 247.154 392.686 246.771 392.471C246.398 392.256 245.973 392.149 245.497 392.149C245.021 392.149 244.596 392.256 244.223 392.471C243.85 392.686 243.551 392.989 243.327 393.381C243.103 393.764 242.991 394.221 242.991 394.753C242.991 395.276 243.103 395.738 243.327 396.139C243.551 396.531 243.85 396.834 244.223 397.049C244.596 397.264 245.021 397.371 245.497 397.371Z" fill="#111111"/>
<path d="M78.0275 198.723C78.0275 198.723 94.6813 198.439 95.612 217.389C95.612 217.389 96.6661 223.073 86.5598 235.221L79.9583 242.821C79.9583 242.821 78.2505 245.656 75.1376 242.561C72.0247 239.466 62.1271 225.853 62.1271 225.853C60.5625 223.135 59.7276 220.058 59.7037 216.922C59.6797 213.785 60.4675 210.696 61.9905 207.954C67.2077 198.175 78.0275 198.723 78.0275 198.723Z" fill="#111111"/>
<path d="M77.3425 229.415C84.3996 229.415 90.1205 223.695 90.1205 216.637C90.1205 209.58 84.3996 203.859 77.3425 203.859C70.2854 203.859 64.5645 209.58 64.5645 216.637C64.5645 223.695 70.2854 229.415 77.3425 229.415Z" fill="white"/>
<path d="M81.3828 219.697L82.9151 223.26H85.2623L82.9369 218.364C82.4458 218.839 81.9268 219.284 81.3828 219.697Z" fill="#687F23"/>
<path d="M82.3869 217.964L82.4286 217.924C83.0442 217.354 83.7503 216.892 84.5178 216.555C83.5431 215.913 82.4438 215.485 81.292 215.297C81.1449 215.274 80.9969 215.255 80.848 215.239C79.3677 215.155 77.9008 215.559 76.6718 216.388C75.4428 217.218 74.5192 218.427 74.0424 219.831C73.8755 219.935 73.7161 220.05 73.5595 220.167L72.7834 220.921L73.4039 219.488L75.1544 215.444L77.3366 210.4L79.3954 214.912C79.4447 214.896 79.4903 214.877 79.5425 214.862C80.2988 214.689 81.0902 214.755 81.8072 215.052L78.7303 208.281H75.9125L70.2284 221.389L69.4238 223.26H71.8128L71.9077 223.022H71.9191L71.9248 222.979H71.9314C73.5806 220.668 75.8409 218.863 78.459 217.765C78.7199 217.656 78.9846 217.553 79.2512 217.459C80.1126 217.153 80.9998 216.926 81.9021 216.78C82.1766 216.736 82.4527 216.699 82.7303 216.669C82.4634 216.727 82.1984 216.79 81.9353 216.859C79.0774 217.627 76.485 219.165 74.44 221.304C76.1996 221.855 78.1006 221.395 80.143 219.925C80.9227 219.353 81.6527 218.716 82.3252 218.021L82.3869 217.964Z" fill="#687F23"/>
<path d="M100.73 228.834H105.784V230.038H100.73V228.834ZM100.87 234H99.47V224.2H106.386V225.418H100.87V234ZM108.024 234V226.58H109.312V228.596L109.186 228.092C109.391 227.579 109.737 227.187 110.222 226.916C110.707 226.645 111.305 226.51 112.014 226.51V227.812C111.958 227.803 111.902 227.798 111.846 227.798C111.799 227.798 111.753 227.798 111.706 227.798C110.987 227.798 110.418 228.013 109.998 228.442C109.578 228.871 109.368 229.492 109.368 230.304V234H108.024ZM116.906 234.084C116.113 234.084 115.413 233.921 114.806 233.594C114.209 233.267 113.742 232.819 113.406 232.25C113.079 231.681 112.916 231.027 112.916 230.29C112.916 229.553 113.075 228.899 113.392 228.33C113.719 227.761 114.162 227.317 114.722 227C115.291 226.673 115.931 226.51 116.64 226.51C117.359 226.51 117.993 226.669 118.544 226.986C119.095 227.303 119.524 227.751 119.832 228.33C120.149 228.899 120.308 229.567 120.308 230.332C120.308 230.388 120.303 230.453 120.294 230.528C120.294 230.603 120.289 230.673 120.28 230.738H113.966V229.772H119.58L119.034 230.108C119.043 229.632 118.945 229.207 118.74 228.834C118.535 228.461 118.25 228.171 117.886 227.966C117.531 227.751 117.116 227.644 116.64 227.644C116.173 227.644 115.758 227.751 115.394 227.966C115.03 228.171 114.745 228.465 114.54 228.848C114.335 229.221 114.232 229.651 114.232 230.136V230.36C114.232 230.855 114.344 231.298 114.568 231.69C114.801 232.073 115.123 232.371 115.534 232.586C115.945 232.801 116.416 232.908 116.948 232.908C117.387 232.908 117.783 232.833 118.138 232.684C118.502 232.535 118.819 232.311 119.09 232.012L119.832 232.88C119.496 233.272 119.076 233.571 118.572 233.776C118.077 233.981 117.522 234.084 116.906 234.084ZM124.302 234.084C123.686 234.084 123.098 234 122.538 233.832C121.988 233.664 121.554 233.459 121.236 233.216L121.796 232.152C122.114 232.367 122.506 232.549 122.972 232.698C123.439 232.847 123.915 232.922 124.4 232.922C125.026 232.922 125.474 232.833 125.744 232.656C126.024 232.479 126.164 232.231 126.164 231.914C126.164 231.681 126.08 231.499 125.912 231.368C125.744 231.237 125.52 231.139 125.24 231.074C124.97 231.009 124.666 230.953 124.33 230.906C123.994 230.85 123.658 230.785 123.322 230.71C122.986 230.626 122.678 230.514 122.398 230.374C122.118 230.225 121.894 230.024 121.726 229.772C121.558 229.511 121.474 229.165 121.474 228.736C121.474 228.288 121.6 227.896 121.852 227.56C122.104 227.224 122.459 226.967 122.916 226.79C123.383 226.603 123.934 226.51 124.568 226.51C125.054 226.51 125.544 226.571 126.038 226.692C126.542 226.804 126.953 226.967 127.27 227.182L126.696 228.246C126.36 228.022 126.01 227.868 125.646 227.784C125.282 227.7 124.918 227.658 124.554 227.658C123.966 227.658 123.528 227.756 123.238 227.952C122.949 228.139 122.804 228.381 122.804 228.68C122.804 228.932 122.888 229.128 123.056 229.268C123.234 229.399 123.458 229.501 123.728 229.576C124.008 229.651 124.316 229.716 124.652 229.772C124.988 229.819 125.324 229.884 125.66 229.968C125.996 230.043 126.3 230.15 126.57 230.29C126.85 230.43 127.074 230.626 127.242 230.878C127.42 231.13 127.508 231.466 127.508 231.886C127.508 232.334 127.378 232.721 127.116 233.048C126.855 233.375 126.486 233.631 126.01 233.818C125.534 233.995 124.965 234.084 124.302 234.084ZM133.15 226.51C133.757 226.51 134.289 226.627 134.746 226.86C135.213 227.093 135.577 227.448 135.838 227.924C136.099 228.4 136.23 229.002 136.23 229.73V234H134.886V229.884C134.886 229.165 134.709 228.624 134.354 228.26C134.009 227.896 133.519 227.714 132.884 227.714C132.408 227.714 131.993 227.807 131.638 227.994C131.283 228.181 131.008 228.456 130.812 228.82C130.625 229.184 130.532 229.637 130.532 230.178V234H129.188V226.58H130.476V228.582L130.266 228.05C130.509 227.565 130.882 227.187 131.386 226.916C131.89 226.645 132.478 226.51 133.15 226.51ZM141.895 234.084C141.149 234.084 140.486 233.921 139.907 233.594C139.329 233.267 138.871 232.819 138.535 232.25C138.199 231.671 138.031 231.018 138.031 230.29C138.031 229.553 138.199 228.899 138.535 228.33C138.871 227.761 139.329 227.317 139.907 227C140.486 226.673 141.149 226.51 141.895 226.51C142.633 226.51 143.291 226.673 143.869 227C144.457 227.317 144.915 227.761 145.241 228.33C145.577 228.89 145.745 229.543 145.745 230.29C145.745 231.027 145.577 231.681 145.241 232.25C144.915 232.819 144.457 233.267 143.869 233.594C143.291 233.921 142.633 234.084 141.895 234.084ZM141.895 232.908C142.371 232.908 142.796 232.801 143.169 232.586C143.552 232.371 143.851 232.068 144.065 231.676C144.28 231.275 144.387 230.813 144.387 230.29C144.387 229.758 144.28 229.301 144.065 228.918C143.851 228.526 143.552 228.223 143.169 228.008C142.796 227.793 142.371 227.686 141.895 227.686C141.419 227.686 140.995 227.793 140.621 228.008C140.248 228.223 139.949 228.526 139.725 228.918C139.501 229.301 139.389 229.758 139.389 230.29C139.389 230.813 139.501 231.275 139.725 231.676C139.949 232.068 140.248 232.371 140.621 232.586C140.995 232.801 141.419 232.908 141.895 232.908ZM153.814 234L150.538 224.2H151.98L154.99 233.244H154.262L157.384 224.2H158.672L161.724 233.244H161.024L164.076 224.2H165.406L162.13 234H160.66L157.804 225.614H158.182L155.312 234H153.814ZM169.666 234.084C168.873 234.084 168.173 233.921 167.566 233.594C166.969 233.267 166.502 232.819 166.166 232.25C165.839 231.681 165.676 231.027 165.676 230.29C165.676 229.553 165.835 228.899 166.152 228.33C166.479 227.761 166.922 227.317 167.482 227C168.051 226.673 168.691 226.51 169.4 226.51C170.119 226.51 170.753 226.669 171.304 226.986C171.855 227.303 172.284 227.751 172.592 228.33C172.909 228.899 173.068 229.567 173.068 230.332C173.068 230.388 173.063 230.453 173.054 230.528C173.054 230.603 173.049 230.673 173.04 230.738H166.726V229.772H172.34L171.794 230.108C171.803 229.632 171.705 229.207 171.5 228.834C171.295 228.461 171.01 228.171 170.646 227.966C170.291 227.751 169.876 227.644 169.4 227.644C168.933 227.644 168.518 227.751 168.154 227.966C167.79 228.171 167.505 228.465 167.3 228.848C167.095 229.221 166.992 229.651 166.992 230.136V230.36C166.992 230.855 167.104 231.298 167.328 231.69C167.561 232.073 167.883 232.371 168.294 232.586C168.705 232.801 169.176 232.908 169.708 232.908C170.147 232.908 170.543 232.833 170.898 232.684C171.262 232.535 171.579 232.311 171.85 232.012L172.592 232.88C172.256 233.272 171.836 233.571 171.332 233.776C170.837 233.981 170.282 234.084 169.666 234.084ZM177.062 234.084C176.446 234.084 175.858 234 175.298 233.832C174.747 233.664 174.313 233.459 173.996 233.216L174.556 232.152C174.873 232.367 175.265 232.549 175.732 232.698C176.199 232.847 176.675 232.922 177.16 232.922C177.785 232.922 178.233 232.833 178.504 232.656C178.784 232.479 178.924 232.231 178.924 231.914C178.924 231.681 178.84 231.499 178.672 231.368C178.504 231.237 178.28 231.139 178 231.074C177.729 231.009 177.426 230.953 177.09 230.906C176.754 230.85 176.418 230.785 176.082 230.71C175.746 230.626 175.438 230.514 175.158 230.374C174.878 230.225 174.654 230.024 174.486 229.772C174.318 229.511 174.234 229.165 174.234 228.736C174.234 228.288 174.36 227.896 174.612 227.56C174.864 227.224 175.219 226.967 175.676 226.79C176.143 226.603 176.693 226.51 177.328 226.51C177.813 226.51 178.303 226.571 178.798 226.692C179.302 226.804 179.713 226.967 180.03 227.182L179.456 228.246C179.12 228.022 178.77 227.868 178.406 227.784C178.042 227.7 177.678 227.658 177.314 227.658C176.726 227.658 176.287 227.756 175.998 227.952C175.709 228.139 175.564 228.381 175.564 228.68C175.564 228.932 175.648 229.128 175.816 229.268C175.993 229.399 176.217 229.501 176.488 229.576C176.768 229.651 177.076 229.716 177.412 229.772C177.748 229.819 178.084 229.884 178.42 229.968C178.756 230.043 179.059 230.15 179.33 230.29C179.61 230.43 179.834 230.626 180.002 230.878C180.179 231.13 180.268 231.466 180.268 231.886C180.268 232.334 180.137 232.721 179.876 233.048C179.615 233.375 179.246 233.631 178.77 233.818C178.294 233.995 177.725 234.084 177.062 234.084ZM184.496 234.084C183.749 234.084 183.17 233.883 182.76 233.482C182.349 233.081 182.144 232.507 182.144 231.76V224.956H183.488V231.704C183.488 232.105 183.586 232.413 183.782 232.628C183.987 232.843 184.276 232.95 184.65 232.95C185.07 232.95 185.42 232.833 185.7 232.6L186.12 233.566C185.914 233.743 185.667 233.874 185.378 233.958C185.098 234.042 184.804 234.084 184.496 234.084ZM180.884 227.686V226.58H185.616V227.686H180.884Z" fill="#111111"/>
</svg>
