<svg width="121" height="145" viewBox="0 0 121 145" fill="none" xmlns="http://www.w3.org/2000/svg">
<g clip-path="url(#clip0_2002_1782)">
<path d="M60.5005 144.418C93.914 144.418 121.001 142.255 121.001 139.587C121.001 136.918 93.914 134.755 60.5005 134.755C27.087 134.755 0 136.918 0 139.587C0 142.255 27.087 144.418 60.5005 144.418Z" fill="#BAF700"/>
<path d="M91.5938 0.00880267H26.4902C22.065 0.00880267 18.4778 3.59607 18.4778 8.02119V131.574C18.4778 135.999 22.065 139.587 26.4902 139.587H91.5938C96.0189 139.587 99.6062 135.999 99.6062 131.574V8.02119C99.6062 3.59607 96.0189 0.00880267 91.5938 0.00880267Z" fill="white"/>
<path d="M93.9841 6.97413e-08H86.5576C87.5024 -0.000131488 88.438 0.185863 89.3109 0.547355C90.1838 0.908847 90.977 1.43874 91.6451 2.1068C92.3131 2.77486 92.8431 3.56799 93.2046 4.44088C93.5661 5.31377 93.752 6.24932 93.7518 7.1941V132.388C93.7518 133.332 93.5657 134.268 93.2041 135.141C92.8426 136.013 92.3126 136.806 91.6446 137.474C90.9765 138.142 90.1837 138.672 89.3109 139.033C88.4381 139.395 87.5023 139.581 86.5576 139.581H93.9841C94.9288 139.581 95.8646 139.395 96.7374 139.033C97.6102 138.672 98.403 138.142 99.0711 137.474C99.7391 136.806 100.269 136.013 100.631 135.141C100.992 134.268 101.178 133.332 101.178 132.388V7.1941C101.178 5.2861 100.42 3.45627 99.0711 2.10711C97.7219 0.757949 95.8921 6.97412e-08 93.9841 6.97413e-08Z" fill="#111111"/>
<path d="M78.6302 38.2055H72.5418V77.0195H78.6302V38.2055Z" fill="#111111"/>
<path d="M65.0365 12.4812H23.7868V102.743H65.0365V12.4812Z" fill="#111111"/>
<path d="M86.1674 125.807H78.0968C77.8814 125.807 77.706 125.553 77.706 125.239C77.706 124.926 77.8814 124.671 78.0968 124.671H86.1674C86.3827 124.671 86.5581 124.926 86.5581 125.239C86.5581 125.553 86.3827 125.807 86.1674 125.807Z" fill="#444246"/>
<path d="M86.1674 128.208H78.0968C77.8814 128.208 77.706 127.954 77.706 127.64C77.706 127.327 77.8814 127.072 78.0968 127.072H86.1674C86.3827 127.072 86.5581 127.327 86.5581 127.64C86.5581 127.954 86.3827 128.208 86.1674 128.208Z" fill="#444246"/>
<path d="M86.1674 120.883H78.0968C77.8814 120.883 77.706 120.629 77.706 120.315C77.706 120.002 77.8814 119.748 78.0968 119.748H86.1674C86.3827 119.748 86.5581 120.002 86.5581 120.315C86.5581 120.629 86.3827 120.883 86.1674 120.883Z" fill="#444246"/>
<path d="M86.1674 123.282H78.0968C77.8814 123.282 77.706 123.027 77.706 122.714C77.706 122.4 77.8814 122.146 78.0968 122.146H86.1674C86.3827 122.146 86.5581 122.4 86.5581 122.714C86.5581 123.027 86.3827 123.282 86.1674 123.282Z" fill="#444246"/>
<path d="M81.8277 86.6466C81.8277 85.932 81.2483 85.3526 80.5337 85.3526C79.819 85.3526 79.2397 85.932 79.2397 86.6466C79.2397 87.3613 79.819 87.9406 80.5337 87.9406C81.2483 87.9406 81.8277 87.3613 81.8277 86.6466Z" fill="#BAF700"/>
<path d="M74.674 86.6466C74.674 85.932 74.0947 85.3526 73.38 85.3526C72.6654 85.3526 72.086 85.932 72.086 86.6466C72.086 87.3613 72.6654 87.9406 73.38 87.9406C74.0947 87.9406 74.674 87.3613 74.674 86.6466Z" fill="#BAF700"/>
<path d="M78.1736 86.6466C78.1736 85.932 77.5942 85.3526 76.8796 85.3526C76.1649 85.3526 75.5856 85.932 75.5856 86.6466C75.5856 87.3613 76.1649 87.9406 76.8796 87.9406C77.5942 87.9406 78.1736 87.3613 78.1736 86.6466Z" fill="#BAF700"/>
<path d="M80.227 101.156H73.8351C72.9523 101.156 72.2366 101.872 72.2366 102.755C72.2366 103.638 72.9523 104.353 73.8351 104.353H80.227C81.1098 104.353 81.8255 103.638 81.8255 102.755C81.8255 101.872 81.1098 101.156 80.227 101.156Z" fill="#BAF700"/>
<path d="M81.8277 96.2357C81.8277 95.521 81.2483 94.9417 80.5337 94.9417C79.819 94.9417 79.2397 95.521 79.2397 96.2357C79.2397 96.9503 79.819 97.5297 80.5337 97.5297C81.2483 97.5297 81.8277 96.9503 81.8277 96.2357Z" fill="#BAF700"/>
<path d="M74.674 96.2357C74.674 95.521 74.0947 94.9417 73.38 94.9417C72.6654 94.9417 72.086 95.521 72.086 96.2357C72.086 96.9503 72.6654 97.5297 73.38 97.5297C74.0947 97.5297 74.674 96.9503 74.674 96.2357Z" fill="#BAF700"/>
<path d="M78.1736 96.2357C78.1736 95.521 77.5942 94.9417 76.8796 94.9417C76.1649 94.9417 75.5856 95.521 75.5856 96.2357C75.5856 96.9503 76.1649 97.5297 76.8796 97.5297C77.5942 97.5297 78.1736 96.9503 78.1736 96.2357Z" fill="#BAF700"/>
<path d="M81.8277 91.5174C81.8277 90.8028 81.2483 90.2234 80.5337 90.2234C79.819 90.2234 79.2397 90.8028 79.2397 91.5174C79.2397 92.2321 79.819 92.8114 80.5337 92.8114C81.2483 92.8114 81.8277 92.2321 81.8277 91.5174Z" fill="#BAF700"/>
<path d="M74.674 91.5174C74.674 90.8028 74.0947 90.2234 73.38 90.2234C72.6654 90.2234 72.086 90.8028 72.086 91.5174C72.086 92.2321 72.6654 92.8114 73.38 92.8114C74.0947 92.8114 74.674 92.2321 74.674 91.5174Z" fill="#BAF700"/>
<path d="M78.1736 91.5174C78.1736 90.8028 77.5942 90.2234 76.8796 90.2234C76.1649 90.2234 75.5856 90.8028 75.5856 91.5174C75.5856 92.2321 76.1649 92.8114 76.8796 92.8114C77.5942 92.8114 78.1736 92.2321 78.1736 91.5174Z" fill="#BAF700"/>
<path d="M59.7257 115.833H29.0934C25.899 115.833 23.3095 118.423 23.3095 121.617V126.336C23.3095 129.53 25.899 132.119 29.0934 132.119H59.7257C62.9201 132.119 65.5097 129.53 65.5097 126.336V121.617C65.5097 118.423 62.9201 115.833 59.7257 115.833Z" fill="#BAF700"/>
<path d="M27.0437 39.191L27.3313 36.7623C25.3243 30.9812 25.3392 24.6902 27.3733 18.9187L27.1088 16.3147L40.6296 16.0473L40.2233 17.9402C40.2233 17.9402 42.6166 29.9698 40.323 36.6551L40.7387 39.9602C40.7387 39.9602 26.6711 38.8445 27.0437 39.191Z" fill="white"/>
<path d="M27.0443 39.1891V39.164C27.0373 39.1731 27.0343 39.1811 27.0443 39.1891Z" fill="#2F8AC2"/>
<path d="M40.7446 39.9573L40.3289 36.6522C42.6185 29.9669 40.2292 17.9373 40.2292 17.9373L40.6356 16.0443L39.6159 16.0644L39.0149 18.0675L37.7982 18.2027C37.7982 18.2027 37.5059 16.461 37.4979 16.6343C37.4899 16.8075 37.0969 18.1807 37.0969 18.1807L35.0151 18.2888C35.0151 18.2888 34.7286 16.3739 34.7236 16.5471C34.7186 16.7204 34.3167 18.44 34.3167 18.44L29.9853 18.4771L29.866 16.7404L29.2919 18.4551L27.3719 18.9148L38.8119 18.7545C38.8119 18.7545 36.5973 28.5607 38.6114 36.2466L36.444 36.3247L35.9271 37.2862L35.3266 36.3657L30.9057 36.526L30.6049 38.3528L29.979 36.5841L27.3098 36.6842L27.3382 36.7564L27.0535 39.1601C27.4271 38.9057 40.7446 39.9573 40.7446 39.9573Z" fill="#E1E1E1"/>
<path d="M32.8009 28.8244C35.4521 28.2076 37.2623 26.2506 36.8442 24.4533C36.426 22.656 33.9379 21.6991 31.2867 22.3159C28.6355 22.9327 26.8252 24.8897 27.2434 26.687C27.6615 28.4842 30.1497 29.4412 32.8009 28.8244Z" fill="#BAF700"/>
<path d="M45.6113 39.191L45.8989 36.7623C43.8921 30.9812 43.907 24.6902 45.941 18.9187L45.6764 16.3147L59.1973 16.0473L58.7919 17.9402C58.7919 17.9402 61.1857 29.9698 58.8921 36.6551L59.3078 39.9602C59.3078 39.9602 45.2388 38.8445 45.6113 39.191Z" fill="white"/>
<path d="M45.6124 39.1891V39.164C45.6044 39.1731 45.6024 39.1811 45.6124 39.1891Z" fill="#2F8AC2"/>
<path d="M59.3129 39.9573L58.8967 36.6522C61.1862 29.9669 58.7964 17.9373 58.7964 17.9373L59.2028 16.0443L58.1832 16.0644L57.5826 18.0675L56.3654 18.2027C56.3654 18.2027 56.0732 16.461 56.0652 16.6343C56.0572 16.8075 55.6705 18.1807 55.6705 18.1807L53.5882 18.2888C53.5882 18.2888 53.3018 16.3739 53.2958 16.5471C53.2897 16.7204 52.8952 18.44 52.8952 18.44L48.5614 18.4771L48.4435 16.7404L47.8704 18.4551L45.9504 18.9148L57.39 18.7545C57.39 18.7545 55.1768 28.5607 57.19 36.2466L55.0225 36.3247L54.5066 37.2862L53.9056 36.3657L49.4847 36.526L49.1844 38.3528L48.5584 36.5841L45.8893 36.6842L45.9172 36.7564L45.633 39.1601C45.9956 38.9057 59.3129 39.9573 59.3129 39.9573Z" fill="#E1E1E1"/>
<path d="M51.3714 28.8225C54.0226 28.2046 55.8323 26.2467 55.4134 24.4494C54.9945 22.6521 52.5057 21.696 49.8545 22.3139C47.2033 22.9318 45.3936 24.8897 45.8125 26.687C46.2313 28.4843 48.7201 29.4404 51.3714 28.8225Z" fill="#BAF700"/>
<path d="M63.8527 38.0588H25.0387V40.3424H63.8527V38.0588Z" fill="#111111"/>
<path d="M27.0437 68.2633L27.3313 65.8345C25.3243 60.0535 25.3392 53.7625 27.3733 47.991L27.1088 45.387L40.6296 45.1195L40.2233 47.0125C40.2233 47.0125 42.6166 59.042 40.323 65.7274L40.7387 69.0325C40.7387 69.0325 26.6711 67.9168 27.0437 68.2633Z" fill="white"/>
<path d="M27.0443 68.2633V68.2383C27.0373 68.2453 27.0343 68.2533 27.0443 68.2633Z" fill="#2F8AC2"/>
<path d="M40.7446 69.0295L40.3289 65.7244C42.6185 59.0391 40.2292 47.0095 40.2292 47.0095L40.6356 45.1166L39.6159 45.1367L39.0149 47.1398L37.7982 47.275C37.7982 47.275 37.5059 45.5332 37.4979 45.7065C37.4899 45.8798 37.0969 47.2539 37.0969 47.2539L35.0151 47.3611C35.0151 47.3611 34.7286 45.4461 34.7236 45.6194C34.7186 45.7927 34.3167 47.5123 34.3167 47.5123L29.9853 47.5494L29.8679 45.8177L29.2938 47.5323L27.3739 47.992L38.8139 47.8318C38.8139 47.8318 36.5993 57.638 38.6134 65.3239L36.446 65.402L35.9291 66.3634L35.3285 65.443L30.9076 65.6033L30.6069 67.4301L29.9809 65.6604L27.3122 65.7605L27.3401 65.8326L27.0555 68.2363C27.4271 67.9769 40.7446 69.0295 40.7446 69.0295Z" fill="#E1E1E1"/>
<path d="M32.8009 57.8967C35.4521 57.2799 37.2623 55.3229 36.8442 53.5256C36.426 51.7283 33.9379 50.7713 31.2867 51.3882C28.6355 52.005 26.8252 53.962 27.2434 55.7592C27.6615 57.5565 30.1497 58.5135 32.8009 57.8967Z" fill="#BAF700"/>
<path d="M45.6113 68.2633L45.8989 65.8345C43.8921 60.0535 43.907 53.7625 45.941 47.991L45.6764 45.387L59.1973 45.1195L58.7919 47.0125C58.7919 47.0125 61.1857 59.042 58.8921 65.7274L59.3078 69.0325C59.3078 69.0325 45.2388 67.9168 45.6113 68.2633Z" fill="white"/>
<path d="M45.6124 68.2633V68.2383C45.6044 68.2453 45.6024 68.2533 45.6124 68.2633Z" fill="#2F8AC2"/>
<path d="M59.3129 69.0295L58.8967 65.7244C61.1862 59.0391 58.7964 47.0095 58.7964 47.0095L59.2028 45.1166L58.1832 45.1367L57.5826 47.1398L56.3654 47.275C56.3654 47.275 56.0732 45.5332 56.0652 45.7065C56.0572 45.8798 55.6705 47.2539 55.6705 47.2539L53.5882 47.3611C53.5882 47.3611 53.3018 45.4461 53.2958 45.6194C53.2897 45.7927 52.8952 47.5123 52.8952 47.5123L48.5614 47.5494L48.4435 45.8127L47.8704 47.5273L45.9504 47.9871L57.39 47.8268C57.39 47.8268 55.1768 57.633 57.19 65.3188L55.0225 65.397L54.5066 66.3584L53.9056 65.438L49.4847 65.5983L49.1844 67.4251L48.5584 65.6554L45.8893 65.7555L45.9172 65.8276L45.633 68.2313C45.9956 67.9769 59.3129 69.0295 59.3129 69.0295Z" fill="#E1E1E1"/>
<path d="M51.3691 57.8986C54.0203 57.2818 55.8304 55.3244 55.4122 53.5266C54.9939 51.7287 52.5056 50.7713 49.8544 51.3882C47.2032 52.005 45.3931 53.9624 45.8113 55.7602C46.2296 57.558 48.7179 58.5154 51.3691 57.8986Z" fill="#BAF700"/>
<path d="M63.8527 67.1301H25.0387V69.4136H63.8527V67.1301Z" fill="#111111"/>
<path d="M27.0437 97.7933L27.3313 95.3646C25.3243 89.5835 25.3392 83.2925 27.3733 77.521L27.1088 74.9169L40.6296 74.6496L40.2233 76.5424C40.2233 76.5424 42.6166 88.5721 40.323 95.2574L40.7387 98.5625C40.7387 98.5625 26.6711 97.4498 27.0437 97.7933Z" fill="white"/>
<path d="M27.0443 97.7933V97.7683C27.0373 97.7753 27.0343 97.7833 27.0443 97.7933Z" fill="#2F8AC2"/>
<path d="M40.7446 98.5596L40.3289 95.2545C42.6185 88.5692 40.2292 76.5396 40.2292 76.5396L40.6356 74.6466L39.6159 74.6667L39.0149 76.6698L37.7982 76.805C37.7982 76.805 37.5059 75.0633 37.4979 75.2366C37.4899 75.4099 37.0969 76.783 37.0969 76.783L35.0151 76.8911C35.0151 76.8911 34.7286 74.9761 34.7236 75.1494C34.7186 75.3227 34.3167 77.0424 34.3167 77.0424L29.9853 77.0794L29.866 75.3427L29.2919 77.0574L27.3719 77.5171L38.8119 77.3569C38.8119 77.3569 36.5973 87.162 38.6114 94.8489L36.444 94.927L35.9271 95.8885L35.3266 94.9681L30.9057 95.1273L30.6049 96.9541L29.979 95.1844L27.3098 95.2845L27.3382 95.3567L27.0535 97.7603C27.4271 97.507 40.7446 98.5596 40.7446 98.5596Z" fill="#E1E1E1"/>
<path d="M32.8009 87.4267C35.4521 86.8099 37.2623 84.8529 36.8442 83.0556C36.426 81.2583 33.9379 80.3014 31.2867 80.9182C28.6355 81.535 26.8252 83.492 27.2434 85.2892C27.6615 87.0865 30.1497 88.0435 32.8009 87.4267Z" fill="#BAF700"/>
<path d="M45.6113 97.7923L45.8989 95.3636C43.8921 89.5825 43.907 83.2915 45.941 77.52L45.6764 74.916L59.1973 74.6486L58.7919 76.5415C58.7919 76.5415 61.1857 88.5711 58.8921 95.2564L59.3078 98.5615C59.3078 98.5615 45.2388 97.4488 45.6113 97.7923Z" fill="white"/>
<path d="M45.6124 97.7923V97.7673C45.6044 97.7743 45.6024 97.7823 45.6124 97.7923Z" fill="#2F8AC2"/>
<path d="M59.3129 98.5586L58.8967 95.2535C61.1862 88.5682 58.7964 76.5386 58.7964 76.5386L59.2028 74.6456L58.1832 74.6657L57.5826 76.6688L56.3654 76.804C56.3654 76.804 56.0732 75.0623 56.0652 75.2356C56.0572 75.4089 55.6705 76.782 55.6705 76.782L53.5882 76.8901C53.5882 76.8901 53.3018 74.9752 53.2958 75.1484C53.2897 75.3217 52.8952 77.0414 52.8952 77.0414L48.5614 77.0784L48.4435 75.3417L47.8704 77.0564L45.9504 77.5161L57.39 77.3559C57.39 77.3559 55.1768 87.161 57.19 94.8479L55.0225 94.926L54.5066 95.8875L53.9056 94.9671L49.4847 95.1263L49.1844 96.9531L48.5584 95.1834L45.8893 95.2836L45.9172 95.3557L45.633 97.7594C45.9956 97.506 59.3129 98.5586 59.3129 98.5586Z" fill="#E1E1E1"/>
<path d="M51.3686 87.4257C54.0198 86.8089 55.8301 84.8519 55.4119 83.0546C54.9938 81.2573 52.5056 80.3004 49.8544 80.9172C47.2032 81.534 45.393 83.491 45.8111 85.2883C46.2293 87.0855 48.7174 88.0425 51.3686 87.4257Z" fill="#BAF700"/>
<path d="M63.8527 96.6592H25.0387V98.9427H63.8527V96.6592Z" fill="#111111"/>
</g>
<defs>
<clipPath id="clip0_2002_1782">
<rect width="120.813" height="144.195" fill="white" transform="scale(1.00155)"/>
</clipPath>
</defs>
</svg>
