<svg width="206" height="256" viewBox="0 0 206 256" fill="none" xmlns="http://www.w3.org/2000/svg">
<path d="M153.966 12.5674H53.0235C51.8244 12.571 50.6756 13.0495 49.8277 13.8985C48.9798 14.7474 48.5016 15.8978 48.498 17.0984V228.304C48.5016 229.505 48.9798 230.655 49.8277 231.504C50.6756 232.353 51.8244 232.831 53.0235 232.835H153.966C155.166 232.832 156.315 232.353 157.163 231.504C158.012 230.655 158.49 229.505 158.493 228.304V17.0984C158.49 15.8975 158.012 14.7469 157.163 13.8979C156.315 13.0489 155.166 12.5705 153.966 12.5674Z" fill="#111111"/>
<path d="M103.293 93.1712C100.312 93.1712 97.3967 92.2859 94.9173 90.6272C92.438 88.9685 90.5056 86.6109 89.3645 83.8526C88.2233 81.0943 87.9248 78.0592 88.5065 75.1309C89.0882 72.2027 90.5242 69.5129 92.6327 67.4018C94.7412 65.2907 97.4274 63.853 100.352 63.2705C103.277 62.6881 106.308 62.987 109.063 64.1296C111.818 65.2721 114.172 67.2069 115.829 69.6893C117.486 72.1718 118.37 75.0903 118.37 78.0759C118.366 82.0782 116.776 85.9153 113.95 88.7454C111.123 91.5754 107.291 93.1672 103.293 93.1712ZM103.293 65.246C100.759 65.246 98.2818 65.9985 96.1745 67.4083C94.0673 68.818 92.4249 70.8218 91.4551 73.1661C90.4852 75.5105 90.2313 78.0901 90.7257 80.5789C91.2201 83.0676 92.4405 85.3537 94.2325 87.148C96.0246 88.9423 98.308 90.1642 100.794 90.6592C103.279 91.1543 105.855 90.9002 108.197 89.9291C110.538 88.958 112.54 87.3136 113.948 85.2038C115.356 83.0939 116.107 80.6134 116.107 78.0759C116.104 74.6735 114.754 71.4112 112.351 69.0049C109.949 66.5986 106.692 65.2449 103.293 65.2409V65.246Z" fill="white"/>
<path d="M101.379 85.125C100.97 85.1226 100.578 84.9652 100.28 84.6846L96.0468 80.7067C95.8921 80.5609 95.7677 80.3862 95.6805 80.1922C95.5932 79.9983 95.5446 79.7891 95.5381 79.5765C95.5316 79.3639 95.5669 79.1521 95.6422 78.9532C95.7174 78.7543 95.8313 78.5722 95.9769 78.4173C96.1224 78.2623 96.2969 78.1376 96.4906 78.0503C96.6843 77.9629 96.8935 77.9146 97.1059 77.9081C97.3182 77.9016 97.5291 77.9371 97.7278 78.0124C97.9264 78.0878 98.1084 78.2016 98.2631 78.3473L101.196 81.1027L108.91 71.0472C109.18 70.7362 109.559 70.5401 109.969 70.4992C110.379 70.4583 110.788 70.5755 111.115 70.8269C111.441 71.0783 111.659 71.445 111.725 71.8521C111.791 72.2591 111.699 72.676 111.468 73.0173L102.666 84.4882C102.529 84.6672 102.356 84.8154 102.158 84.9233C101.96 85.0312 101.741 85.0965 101.517 85.1148C101.474 85.1233 101.421 85.125 101.379 85.125Z" fill="white"/>
<ellipse cx="104.01" cy="139.994" rx="34.1023" ry="34.1447" fill="#BAF700"/>
<path d="M119.472 156.228L117.896 125.901C117.841 125.476 117.628 125.088 117.299 124.813C116.971 124.538 116.552 124.397 116.125 124.417H110.894V120.554C110.894 119.829 110.608 119.135 110.096 118.622C109.584 118.11 108.891 117.822 108.167 117.822H104.332C103.974 117.822 103.619 117.893 103.288 118.03C102.957 118.168 102.656 118.369 102.403 118.622C102.15 118.876 101.948 119.177 101.811 119.509C101.674 119.84 101.604 120.195 101.604 120.554V124.417H96.376C95.9487 124.397 95.5294 124.538 95.2013 124.813C94.8731 125.088 94.6599 125.476 94.6043 125.901L93.0282 156.228C93.0142 156.479 93.0521 156.73 93.139 156.966C93.2258 157.202 93.3602 157.418 93.5336 157.6C93.707 157.781 93.9159 157.926 94.1472 158.023C94.3786 158.121 94.628 158.17 94.8791 158.168H117.609C117.861 158.172 118.112 158.123 118.344 158.026C118.577 157.929 118.787 157.785 118.962 157.603C119.137 157.422 119.272 157.206 119.359 156.969C119.447 156.732 119.486 156.48 119.472 156.228ZM103.326 120.547C103.326 120.279 103.433 120.021 103.623 119.832C103.812 119.642 104.069 119.535 104.337 119.535H108.172C108.44 119.535 108.697 119.641 108.887 119.831C109.077 120.021 109.184 120.278 109.184 120.547V124.411H103.326V120.547Z" fill="#111111"/>
<path d="M111.311 132.182C111.311 131.987 111.039 131.83 110.711 131.83C110.679 131.829 110.647 131.829 110.616 131.83C110.37 131.796 109.71 131.89 109.298 133.695C108.786 135.945 108.141 141.343 108.141 141.343C108.141 141.343 107.839 142.85 109.846 143.187L109.652 151.211C109.652 151.475 109.757 151.729 109.944 151.916C110.13 152.103 110.384 152.208 110.648 152.208C110.912 152.208 111.165 152.103 111.352 151.916C111.538 151.729 111.644 151.475 111.644 151.211L111.311 132.182Z" fill="#93B133"/>
<path d="M107.167 135.531C107.069 134.838 106.918 131.83 106.325 131.83C106.253 131.821 106.18 131.829 106.111 131.852C106.042 131.875 105.978 131.914 105.926 131.965C105.874 132.016 105.834 132.078 105.809 132.146C105.784 132.215 105.774 132.288 105.781 132.361V136.868C105.781 136.868 105.831 137.711 105.337 137.711C104.996 137.711 104.825 137.303 104.758 137.056L104.675 132.181C104.675 131.987 104.4 131.83 104.074 131.83C103.749 131.83 103.476 131.987 103.471 132.181L103.358 136.868C103.358 136.868 103.232 137.711 102.737 137.711C102.243 137.711 102.293 136.868 102.293 136.868V132.361C102.3 132.288 102.29 132.215 102.265 132.146C102.24 132.078 102.2 132.016 102.148 131.965C102.096 131.914 102.033 131.875 101.964 131.852C101.895 131.829 101.821 131.821 101.749 131.83C101.156 131.83 101.005 134.838 100.907 135.531C100.808 136.224 100.715 139.272 103.294 139.482L103.009 151.207C103.009 151.471 103.113 151.725 103.3 151.912C103.487 152.099 103.74 152.204 104.005 152.204C104.269 152.204 104.522 152.099 104.709 151.912C104.896 151.725 105 151.471 105 151.207L104.797 139.478C107.36 139.254 107.265 136.198 107.167 135.531Z" fill="#93B133"/>
<path d="M129.207 137.998H123.675L124.598 134.447L128.704 131.662C128.783 131.612 128.852 131.547 128.905 131.469C128.959 131.392 128.997 131.305 129.016 131.213C129.035 131.121 129.036 131.025 129.018 130.933C129 130.841 128.963 130.753 128.91 130.675C128.858 130.597 128.79 130.531 128.711 130.48C128.632 130.428 128.543 130.394 128.451 130.378C128.358 130.361 128.263 130.364 128.172 130.385C128.08 130.407 127.994 130.446 127.918 130.502L123.595 133.435C123.454 133.53 123.352 133.674 123.309 133.839L122.23 137.998H116.692C116.478 137.999 116.272 138.084 116.121 138.235C115.97 138.386 115.885 138.592 115.885 138.806V142.049C115.885 142.244 115.955 142.432 116.083 142.578C116.21 142.725 116.386 142.821 116.578 142.848L117.806 159.439C117.832 159.766 117.979 160.071 118.216 160.296C118.453 160.521 118.765 160.65 119.092 160.658H126.804C127.131 160.65 127.444 160.522 127.682 160.296C127.919 160.071 128.066 159.766 128.092 159.439L129.319 142.848C129.511 142.82 129.687 142.724 129.814 142.578C129.941 142.431 130.011 142.244 130.012 142.049V138.806C130.011 138.592 129.926 138.387 129.775 138.236C129.625 138.084 129.42 137.999 129.207 137.998Z" fill="#111111"/>
<path d="M100.898 153.957H99.6414L97.179 148.323H80.2832L77.8229 153.957H76.5645V155.245H77.9149L80.2832 161.041H97.174L99.5427 155.245H100.893L100.898 153.957Z" fill="#111111"/>
<path d="M72.5678 34.5081V36.4253H76.411V38.3255H72.5678V41.3148H70.1055V32.5977H76.9259V34.503L72.5678 34.5081Z" fill="white"/>
<path d="M77.4083 37.9328C77.343 37.1654 77.5108 36.3961 77.8895 35.7258C78.2682 35.0554 78.84 34.5151 79.5305 34.1757C80.221 33.8362 80.998 33.7134 81.7593 33.8234C82.5207 33.9333 83.2309 34.2709 83.7975 34.7919C84.364 35.3129 84.7603 35.993 84.9344 36.7432C85.1084 37.4934 85.052 38.2788 84.7728 38.9964C84.4936 39.7141 84.0045 40.3307 83.3695 40.7654C82.7345 41.2 81.9832 41.4326 81.214 41.4327C80.7304 41.472 80.2438 41.4107 79.7849 41.2528C79.326 41.0949 78.905 40.8438 78.5477 40.5152C78.1903 40.1865 77.9045 39.7876 77.7084 39.3432C77.5124 38.8988 77.4102 38.4187 77.4083 37.9328ZM82.6327 37.9328C82.6546 37.7332 82.6341 37.5312 82.5728 37.34C82.5114 37.1488 82.4106 36.9726 82.2768 36.8231C82.1429 36.6736 81.9791 36.5539 81.796 36.472C81.6128 36.3902 81.4146 36.3478 81.214 36.3478C81.0134 36.3478 80.8152 36.3902 80.632 36.472C80.4489 36.5539 80.2851 36.6736 80.1512 36.8231C80.0174 36.9726 79.9165 37.1488 79.8552 37.34C79.7939 37.5312 79.7734 37.7332 79.7953 37.9328C79.7691 38.1348 79.7864 38.3401 79.8457 38.5349C79.905 38.7298 80.0049 38.9097 80.1391 39.0627C80.2734 39.2157 80.4388 39.3384 80.6241 39.4224C80.8095 39.5064 81.0106 39.5498 81.214 39.5498C81.4174 39.5498 81.6185 39.5064 81.8039 39.4224C81.9892 39.3384 82.1546 39.2157 82.2889 39.0627C82.4231 38.9097 82.523 38.7298 82.5823 38.5349C82.6416 38.3401 82.6589 38.1348 82.6327 37.9328Z" fill="white"/>
<path d="M85.6936 37.9333C85.628 37.1655 85.7953 36.3956 86.174 35.7247C86.5527 35.0537 87.125 34.513 87.8158 34.1732C88.5067 33.8334 89.2841 33.7104 90.0459 33.8204C90.8077 33.9303 91.5188 34.2682 92.0857 34.7895C92.6526 35.3108 93.0489 35.9913 93.223 36.742C93.3971 37.4927 93.3406 38.2785 93.0611 38.9966C92.7815 39.7146 92.292 40.3314 91.6565 40.7661C91.021 41.2009 90.269 41.4334 89.4993 41.4331C89.0157 41.4724 88.5291 41.4112 88.0702 41.2533C87.6113 41.0954 87.1899 40.8443 86.8326 40.5156C86.4752 40.187 86.1898 39.7881 85.9938 39.3437C85.7977 38.8993 85.6955 38.4191 85.6936 37.9333ZM90.9164 37.9333C90.9394 37.7332 90.9196 37.5304 90.8589 37.3383C90.7982 37.1463 90.6976 36.9693 90.5638 36.8189C90.4299 36.6685 90.2657 36.5481 90.0821 36.4657C89.8985 36.3834 89.6997 36.3408 89.4985 36.3408C89.2973 36.3408 89.0984 36.3834 88.9148 36.4657C88.7312 36.5481 88.5671 36.6685 88.4332 36.8189C88.2993 36.9693 88.1984 37.1463 88.1376 37.3383C88.0769 37.5304 88.0576 37.7332 88.0806 37.9333C88.0534 38.1357 88.0697 38.3416 88.1285 38.5372C88.1873 38.7327 88.2873 38.9135 88.4215 39.0672C88.5558 39.221 88.7212 39.3442 88.9069 39.4286C89.0927 39.513 89.2945 39.5568 89.4985 39.5568C89.7025 39.5568 89.9039 39.513 90.0896 39.4286C90.2754 39.3442 90.4411 39.221 90.5754 39.0672C90.7097 38.9135 90.8097 38.7327 90.8685 38.5372C90.9273 38.3416 90.9436 38.1357 90.9164 37.9333Z" fill="white"/>
<path d="M101.565 32.0791V41.3204H99.3125V40.6478C99.0646 40.9208 98.7575 41.1335 98.415 41.2696C98.0725 41.4057 97.7034 41.4616 97.336 41.4331C96.4421 41.3888 95.5993 41.0021 94.9823 40.353C94.3653 39.7039 94.0215 38.8421 94.0215 37.9461C94.0215 37.05 94.3653 36.1882 94.9823 35.5391C95.5993 34.89 96.4421 34.5034 97.336 34.4591C97.6783 34.4387 98.0213 34.4903 98.3426 34.6106C98.6638 34.7308 98.9567 34.9171 99.2018 35.1573V32.0842L101.565 32.0791ZM99.2392 37.9332C99.2633 37.7333 99.2442 37.5306 99.1843 37.3384C99.1243 37.1461 99.0246 36.9689 98.8912 36.8182C98.7578 36.6675 98.5942 36.5468 98.4108 36.4642C98.2274 36.3816 98.0283 36.339 97.8272 36.339C97.6261 36.339 97.427 36.3816 97.2436 36.4642C97.0601 36.5468 96.8966 36.6675 96.7632 36.8182C96.6297 36.9689 96.5292 37.1461 96.4693 37.3384C96.4093 37.5306 96.3911 37.7333 96.4151 37.9332C96.387 38.1354 96.4029 38.3412 96.4609 38.5368C96.519 38.7324 96.6177 38.9133 96.7515 39.0673C96.8853 39.2212 97.0506 39.3446 97.2361 39.4292C97.4215 39.5137 97.6234 39.5574 97.8272 39.5574C98.031 39.5574 98.232 39.5137 98.4175 39.4292C98.603 39.3446 98.7682 39.2212 98.902 39.0673C99.0358 38.9133 99.1354 38.7324 99.1934 38.5368C99.2515 38.3412 99.2674 38.1354 99.2392 37.9332Z" fill="white"/>
<path d="M106.444 32.5656C106.449 32.3857 106.492 32.209 106.569 32.0465C106.646 31.884 106.756 31.7392 106.892 31.6211C107.027 31.503 107.186 31.4141 107.357 31.3601C107.528 31.3062 107.709 31.2882 107.887 31.3073C108.063 31.2847 108.242 31.2989 108.413 31.3493C108.583 31.3997 108.741 31.485 108.876 31.5998C109.012 31.7146 109.122 31.8565 109.2 32.0163C109.278 32.1761 109.322 32.3503 109.328 32.5279C109.291 32.8821 109.125 33.2103 108.862 33.4502C108.599 33.6902 108.258 33.8253 107.902 33.8299C107.547 33.8346 107.202 33.7084 106.933 33.4753C106.664 33.2423 106.49 32.9186 106.444 32.5656ZM106.704 34.5698H109.068V41.3202H106.704V34.5698Z" fill="white"/>
<path d="M110.061 40.736L110.77 39.1176C111.486 39.5267 112.297 39.7415 113.122 39.7407C113.918 39.7407 114.178 39.57 114.178 39.2797C114.178 38.3698 110.199 39.4044 110.199 36.7019C110.199 35.4317 111.369 34.4602 113.483 34.4602C114.403 34.4415 115.314 34.6379 116.145 35.0338L115.436 36.6404C114.842 36.3102 114.174 36.1385 113.495 36.1419C112.699 36.1419 112.413 36.3655 112.413 36.6148C112.413 37.5486 116.381 36.5397 116.381 39.2184C116.381 40.4629 115.238 41.4377 113.049 41.4377C112.01 41.4584 110.982 41.2171 110.061 40.736Z" fill="white"/>
<path d="M120.598 37.9333C120.532 37.1655 120.7 36.3956 121.078 35.7247C121.457 35.0537 122.029 34.513 122.72 34.1732C123.411 33.8334 124.188 33.7104 124.95 33.8204C125.712 33.9303 126.423 34.2682 126.99 34.7895C127.556 35.3108 127.953 35.9913 128.127 36.742C128.301 37.4927 128.245 38.2785 127.965 38.9966C127.686 39.7146 127.196 40.3314 126.561 40.7661C125.925 41.2009 125.173 41.4334 124.404 41.4331C123.92 41.4722 123.434 41.4107 122.975 41.2528C122.516 41.0948 122.095 40.8437 121.738 40.5151C121.38 40.1865 121.095 39.7875 120.898 39.3433C120.702 38.899 120.6 38.4191 120.598 37.9333ZM125.821 37.9333C125.844 37.7332 125.824 37.5304 125.763 37.3383C125.702 37.1463 125.602 36.9693 125.468 36.8189C125.334 36.6685 125.17 36.5481 124.986 36.4657C124.803 36.3834 124.604 36.3408 124.403 36.3408C124.202 36.3408 124.003 36.3834 123.819 36.4657C123.636 36.5481 123.471 36.6685 123.337 36.8189C123.203 36.9693 123.102 37.1463 123.042 37.3383C122.981 37.5304 122.962 37.7332 122.985 37.9333C122.958 38.1357 122.974 38.3416 123.032 38.5372C123.091 38.7327 123.191 38.9135 123.325 39.0672C123.46 39.221 123.625 39.3442 123.811 39.4286C123.997 39.513 124.199 39.5568 124.403 39.5568C124.607 39.5568 124.808 39.513 124.994 39.4286C125.18 39.3442 125.345 39.221 125.479 39.0672C125.614 38.9135 125.714 38.7327 125.772 38.5372C125.831 38.3416 125.848 38.1357 125.821 37.9333Z" fill="white"/>
<path d="M136.481 37.4532V41.3132H134.118V37.8458C134.118 36.8744 133.695 36.4629 133.011 36.4629C132.252 36.4629 131.668 36.9359 131.668 38.0575V41.32H129.303V34.5696H131.553V35.3037C131.833 35.0223 132.167 34.8015 132.536 34.6546C132.904 34.5078 133.299 34.4382 133.695 34.4501C134.087 34.4242 134.478 34.4859 134.843 34.6309C135.207 34.7758 135.535 35.0003 135.802 35.288C136.069 35.5756 136.268 35.9192 136.385 36.2937C136.503 36.6683 136.536 37.0644 136.481 37.4532Z" fill="white"/>
<path d="M78.7461 45.4671C78.7519 45.2875 78.7944 45.111 78.8714 44.9486C78.9484 44.7862 79.0582 44.6414 79.1936 44.5234C79.329 44.4053 79.487 44.3164 79.6582 44.2623C79.8294 44.2082 80.01 44.19 80.1885 44.2089C80.3648 44.186 80.5437 44.2001 80.7143 44.2504C80.8849 44.3006 81.0434 44.3858 81.1793 44.5007C81.3152 44.6155 81.4255 44.7574 81.5036 44.9174C81.5817 45.0773 81.6256 45.2517 81.6326 45.4296C81.5922 45.7814 81.4251 46.1064 81.1626 46.3438C80.9002 46.5812 80.5605 46.7147 80.2068 46.7193C79.8532 46.7239 79.5096 46.5992 79.2411 46.3688C78.9725 46.1383 78.7956 45.8178 78.7461 45.4671ZM79.005 47.4714H81.3683V54.2218H79.005V47.4714Z" fill="white"/>
<path d="M87.5531 53.9486C87.0504 54.2228 86.4833 54.356 85.9113 54.3344C84.1823 54.3344 83.1829 53.4808 83.1829 51.7565V49.4893H82.1992V47.7206H83.1829V45.9639H85.5445V47.7206H87.0794V49.4893H85.5445V51.7309C85.5314 51.8301 85.5402 51.9309 85.5703 52.0263C85.6004 52.1217 85.6513 52.2093 85.7189 52.283C85.7866 52.3566 85.8696 52.4143 85.962 52.4523C86.0545 52.4902 86.1541 52.5074 86.2539 52.5025C86.5099 52.5051 86.7612 52.4315 86.9753 52.2909L87.5531 53.9486Z" fill="white"/>
<path d="M88.2109 45.5049H90.2008L90.0405 49.1412H88.3591L88.2109 45.5049Z" fill="white"/>
<path d="M90.9355 53.6365L91.6449 52.0179C92.3611 52.4271 93.1715 52.642 93.9961 52.6411C94.7907 52.6411 95.0535 52.4704 95.0535 52.1801C95.0535 51.2719 91.0754 52.3048 91.0754 49.6022C91.0754 48.332 92.2435 47.3606 94.3578 47.3606C95.2781 47.3417 96.1902 47.5381 97.0213 47.9343L96.3119 49.5407C95.7186 49.2103 95.0504 49.0386 94.3716 49.0422C93.5753 49.0422 93.2888 49.2659 93.2888 49.5152C93.2888 50.4491 97.2565 49.44 97.2565 52.1187C97.2565 53.3632 96.1122 54.3381 93.9228 54.3381C92.884 54.3588 91.8568 54.1176 90.9355 53.6365Z" fill="white"/>
<path d="M113.065 47.4717L110.664 54.2221H108.377L107.107 50.5481L105.789 54.2221H103.501L101.1 47.4717H103.338L104.72 51.5571L106.151 47.4717H108.166L109.557 51.5946L110.988 47.4717H113.065Z" fill="white"/>
<path d="M119.869 50.4674V54.2233H117.666V53.3508C117.464 53.689 117.168 53.9617 116.815 54.1361C116.462 54.3105 116.067 54.3794 115.676 54.3343C114.059 54.3343 113.164 53.426 113.164 52.2548C113.164 51.0103 114.071 50.2369 116.161 50.2369H117.505C117.469 49.554 117.009 49.1664 116.075 49.1664C115.419 49.1658 114.78 49.3706 114.246 49.752L113.45 48.1456C114.35 47.6143 115.379 47.3425 116.423 47.3602C118.612 47.3585 119.869 48.3299 119.869 50.4674ZM117.505 52.05V51.4644H116.482C115.721 51.4644 115.45 51.7393 115.45 52.1473C115.45 52.5553 115.773 52.8301 116.334 52.8301C116.587 52.8463 116.838 52.7792 117.05 52.6389C117.261 52.4987 117.421 52.2931 117.505 52.0534V52.05Z" fill="white"/>
<path d="M128.336 47.4717L125.424 54.4953C125.253 55.1624 124.858 55.7504 124.306 56.1607C123.753 56.571 123.076 56.7787 122.389 56.7488C121.69 56.7579 121.006 56.5438 120.437 56.1376L121.258 54.4816C121.547 54.7352 121.917 54.8763 122.302 54.8794C122.496 54.895 122.691 54.8477 122.857 54.7444C123.023 54.6412 123.15 54.4874 123.222 54.3057L120.336 47.4768H122.762L124.416 51.5997L126.084 47.4768L128.336 47.4717Z" fill="white"/>
<path d="M134.362 191.211H73.3069C66.7225 191.211 61.3848 196.555 61.3848 203.148C61.3848 209.741 66.7225 215.085 73.3069 215.085H134.362C140.946 215.085 146.284 209.741 146.284 203.148C146.284 196.555 140.946 191.211 134.362 191.211Z" fill="#BAF700"/>
<path d="M87.0343 205.865V200.265H89.5783C90.1863 200.265 90.7223 200.383 91.1863 200.617C91.6503 200.847 92.0129 201.169 92.2743 201.585C92.5356 202.001 92.6663 202.495 92.6663 203.065C92.6663 203.631 92.5356 204.124 92.2743 204.545C92.0129 204.961 91.6503 205.287 91.1863 205.521C90.7223 205.751 90.1863 205.865 89.5783 205.865H87.0343ZM88.3303 204.801H89.5143C89.8876 204.801 90.2103 204.732 90.4823 204.593C90.7596 204.449 90.9729 204.247 91.1223 203.985C91.2769 203.724 91.3543 203.417 91.3543 203.065C91.3543 202.708 91.2769 202.401 91.1223 202.145C90.9729 201.884 90.7596 201.684 90.4823 201.545C90.2103 201.401 89.8876 201.329 89.5143 201.329H88.3303V204.801ZM94.8356 202.521H97.5316V203.529H94.8356V202.521ZM94.9316 204.825H97.9796V205.865H93.6436V200.265H97.8756V201.305H94.9316V204.825ZM100.171 205.865V201.321H98.3788V200.265H103.259V201.321H101.467V205.865H100.171ZM102.939 205.865L105.435 200.265H106.715L109.219 205.865H107.859L105.811 200.921H106.323L104.267 205.865H102.939ZM104.187 204.665L104.531 203.681H107.411L107.763 204.665H104.187ZM109.8 205.865V200.265H111.096V205.865H109.8ZM112.425 205.865V200.265H113.721V204.809H116.529V205.865H112.425ZM119.07 205.961C118.622 205.961 118.192 205.903 117.782 205.785C117.371 205.663 117.04 205.505 116.79 205.313L117.23 204.337C117.47 204.508 117.752 204.649 118.078 204.761C118.408 204.868 118.742 204.921 119.078 204.921C119.334 204.921 119.539 204.897 119.694 204.849C119.854 204.796 119.971 204.724 120.046 204.633C120.12 204.543 120.158 204.439 120.158 204.321C120.158 204.172 120.099 204.055 119.982 203.969C119.864 203.879 119.71 203.807 119.518 203.753C119.326 203.695 119.112 203.641 118.878 203.593C118.648 203.54 118.416 203.476 118.182 203.401C117.952 203.327 117.742 203.231 117.55 203.113C117.358 202.996 117.2 202.841 117.078 202.649C116.96 202.457 116.902 202.212 116.902 201.913C116.902 201.593 116.987 201.303 117.158 201.041C117.334 200.775 117.595 200.564 117.942 200.409C118.294 200.249 118.734 200.169 119.262 200.169C119.614 200.169 119.96 200.212 120.302 200.297C120.643 200.377 120.944 200.5 121.206 200.665L120.806 201.649C120.544 201.5 120.283 201.391 120.022 201.321C119.76 201.247 119.504 201.209 119.254 201.209C119.003 201.209 118.798 201.239 118.638 201.297C118.478 201.356 118.363 201.433 118.294 201.529C118.224 201.62 118.19 201.727 118.19 201.849C118.19 201.993 118.248 202.111 118.366 202.201C118.483 202.287 118.638 202.356 118.83 202.409C119.022 202.463 119.232 202.516 119.462 202.569C119.696 202.623 119.928 202.684 120.158 202.753C120.392 202.823 120.606 202.916 120.798 203.033C120.99 203.151 121.144 203.305 121.262 203.497C121.384 203.689 121.446 203.932 121.446 204.225C121.446 204.54 121.358 204.828 121.182 205.089C121.006 205.351 120.742 205.561 120.39 205.721C120.043 205.881 119.603 205.961 119.07 205.961Z" fill="#111111"/>
</svg>
