<svg width="24" height="24" viewBox="0 0 24 24" fill="none" xmlns="http://www.w3.org/2000/svg">
<path d="M11.9004 2C8.0004 2 4.9004 5.4 5.0004 9.3C5.1004 11.9 6.6004 14.1 8.7004 15.2C10.1004 15.9 11.0004 17.3 11.0004 18.8V19C11.0004 20.7 12.3004 22 14.0004 22C18.0004 22 19.0004 17 19.0004 9C19.0004 9 19.0004 2 11.9004 2ZM14.0004 20C13.4004 20 13.0004 19.6 13.0004 19V18.8C13.0004 16.6 11.7004 14.5 9.7004 13.4C8.1004 12.6 7.1004 11 7.0004 9.2C7.0004 7.9 7.5004 6.5 8.4004 5.5C9.3004 4.5 10.6004 4 11.8004 4C16.7004 4 17.0004 8.2 17.0004 9C17.0004 18.9 15.3004 20 14.0004 20ZM15.8004 7.6L8.3004 10.3C8.1004 10 8.0004 9.6 8.0004 9.1C8.0004 8.4 8.2004 7.8 8.5004 7.1L13.7004 5.2C14.9004 5.8 15.5004 6.7 15.8004 7.6ZM12.9004 15.1L15.7004 14.1C15.6004 15.6 15.3004 16.7 15.1004 17.4L13.8004 17.9C13.8004 16.9 13.5004 16 12.9004 15.1ZM16.0004 9.2C16.0004 10.4 16.0004 11.5 15.9004 12.4L11.9004 13.9C11.4004 13.4 10.8004 12.9 10.1004 12.6C9.7004 12.4 9.3004 12.1 9.0004 11.8L16.0004 9.2Z" fill="white"/>
</svg>
