<svg width="20" height="19" viewBox="0 0 20 19" fill="none" xmlns="http://www.w3.org/2000/svg">
<path d="M9.10133 0.611407C9.36616 -0.203657 10.5193 -0.203657 10.7841 0.611407L12.5248 5.96878C12.6432 6.33329 12.9829 6.58008 13.3662 6.58008H18.9993C19.8563 6.58008 20.2126 7.67674 19.5193 8.18048L14.962 11.4915C14.6519 11.7168 14.5222 12.1161 14.6406 12.4806L16.3813 17.838C16.6462 18.6531 15.7133 19.3308 15.02 18.8271L10.4627 15.5161C10.1526 15.2908 9.73278 15.2908 9.42271 15.5161L4.86545 18.8271C4.17211 19.3308 3.23924 18.6531 3.50407 17.838L5.24479 12.4806C5.36322 12.1161 5.23348 11.7168 4.92341 11.4915L0.36615 8.18048C-0.327185 7.67674 0.0291425 6.58008 0.886152 6.58008H6.51923C6.9025 6.58008 7.24218 6.33329 7.36061 5.96878L9.10133 0.611407Z" fill="#BAF700"/>
</svg>
