<svg width="410" height="312" viewBox="0 0 410 312" fill="none" xmlns="http://www.w3.org/2000/svg">
<mask id="path-1-inside-1_2002_2167" fill="white">
<path d="M402 0C406.418 0.000173739 410 3.58203 410 8V264.84C410 269.258 406.418 272.84 402 272.84H76.7762C76.184 272.84 75.6222 273.102 75.2422 273.557L44.3377 310.497C43.1386 311.93 40.8037 311.082 40.8037 309.213V274.84C40.8037 273.735 39.9083 272.84 38.8037 272.84H8C3.58183 272.84 0.000172224 269.258 0 264.84V8C0.000240157 3.58193 3.58187 1.78593e-07 8 0H402Z"/>
</mask>
<path d="M402 0L402 -1H402V0ZM410 8H411V7.99995L410 8ZM410 264.84L411 264.84V264.84H410ZM402 272.84V273.84H402L402 272.84ZM0 264.84H-1V264.84L0 264.84ZM0 8L-1 7.99995V8H0ZM8 0V-1V0ZM44.3377 310.497L45.1047 311.138L44.3377 310.497ZM75.2422 273.557L74.4752 272.915L75.2422 273.557ZM402 0L402 1C405.866 1.00015 409 4.13432 409 8.00005L410 8L411 7.99995C411 3.02975 406.97 -0.999805 402 -1L402 0ZM410 8H409V264.84H410H411V8H410ZM410 264.84L409 264.84C409 268.706 405.866 271.84 402 271.84L402 272.84L402 273.84C406.97 273.84 411 269.81 411 264.84L410 264.84ZM402 272.84V271.84H76.7762V272.84V273.84H402V272.84ZM75.2422 273.557L74.4752 272.915L43.5707 309.855L44.3377 310.497L45.1047 311.138L76.0092 274.198L75.2422 273.557ZM40.8037 309.213H41.8037V274.84H40.8037H39.8037V309.213H40.8037ZM38.8037 272.84V271.84H8V272.84V273.84H38.8037V272.84ZM8 272.84V271.84C4.13415 271.84 1.00015 268.706 1 264.84L0 264.84L-1 264.84C-0.999806 269.81 3.0295 273.84 8 273.84V272.84ZM0 264.84H1V8H0H-1V264.84H0ZM0 8L1 8.00005C1.00021 4.13417 4.13421 1 8 1V0V-1C3.02953 -1 -0.99973 3.02968 -1 7.99995L0 8ZM8 0V1H402V0V-1H8V0ZM40.8037 274.84H41.8037C41.8037 273.183 40.4606 271.84 38.8037 271.84V272.84V273.84C39.356 273.84 39.8037 274.288 39.8037 274.84H40.8037ZM44.3377 310.497L43.5707 309.855C42.9712 310.572 41.8037 310.148 41.8037 309.213H40.8037H39.8037C39.8037 312.016 43.3061 313.288 45.1047 311.138L44.3377 310.497ZM76.7762 272.84V271.84C75.8879 271.84 75.0452 272.234 74.4752 272.915L75.2422 273.557L76.0092 274.198C76.1992 273.971 76.4801 273.84 76.7762 273.84V272.84Z" fill="#BAF700" mask="url(#path-1-inside-1_2002_2167)"/>
</svg>
