<svg width="9" height="9" viewBox="0 0 9 9" fill="none" xmlns="http://www.w3.org/2000/svg">
<path d="M4.49957 8.99914C3.60964 8.99914 2.7397 8.73525 1.99974 8.24083C1.25979 7.74641 0.683073 7.04367 0.342511 6.22148C0.00194959 5.39929 -0.0871569 4.49458 0.08646 3.62175C0.260077 2.74892 0.68862 1.94717 1.3179 1.3179C1.94717 0.68862 2.74892 0.260077 3.62175 0.08646C4.49458 -0.0871569 5.39929 0.00194959 6.22148 0.342511C7.04367 0.683073 7.74641 1.25979 8.24083 1.99974C8.73525 2.7397 8.99914 3.60964 8.99914 4.49957C8.99783 5.69253 8.52335 6.83625 7.6798 7.6798C6.83625 8.52335 5.69253 8.99783 4.49957 8.99914ZM4.49957 0.899916C3.78763 0.899916 3.09167 1.11103 2.49971 1.50657C1.90775 1.9021 1.44637 2.46429 1.17392 3.12204C0.901474 3.77979 0.830189 4.50356 0.969082 5.20183C1.10798 5.90009 1.45081 6.54149 1.95423 7.04491C2.45765 7.54833 3.09905 7.89117 3.79731 8.03006C4.49558 8.16895 5.21935 8.09767 5.8771 7.82522C6.53485 7.55277 7.09704 7.09139 7.49258 6.49943C7.88811 5.90747 8.09923 5.21152 8.09923 4.49957C8.09816 3.54521 7.71856 2.63025 7.04373 1.95542C6.3689 1.28058 5.45393 0.900988 4.49957 0.899916Z" fill="#111111"/>
</svg>
